<svg width="652" height="447" viewBox="0 0 652 447" fill="none" xmlns="http://www.w3.org/2000/svg">
<path d="M652 351.118L619.565 332.403L651.136 314.183L651.424 314.022V276.568L652 276.234L651.424 275.899V238.457L619.588 220.076L651.17 201.844L651.458 201.683V162.915L618.159 182.138L617.871 182.299V219.085L617.848 219.073V257.184L587.603 274.643C587.327 274.367 586.969 274.159 586.578 274.055V201.026L554.143 182.311V144.868L523.31 127.075C523.368 126.879 523.403 126.683 523.403 126.476C523.403 126.268 523.368 126.072 523.31 125.888L553.855 108.256L554.143 108.095V71.3322L585.39 89.3677V164.909L616.788 146.782C617.203 147.196 617.767 147.45 618.39 147.45C619.635 147.45 620.649 146.436 620.649 145.191C620.649 144.142 619.934 143.267 618.966 143.013V70.6868L651.159 52.0982L651.447 51.9369V13.1692L618.966 31.9192V31.8846L585.967 50.9342L552.956 31.8846V70.0069L520.844 88.5494L520.556 88.7108V124.309C519.588 124.563 518.873 125.439 518.873 126.487C518.873 127.536 519.588 128.412 520.556 128.665V164.264L552.99 182.979V219.753L521.708 237.812V201.038L489.274 182.322V181.654L488.697 181.988L488.121 181.654V182.322L455.975 200.876L455.687 201.038V239.805L487.084 221.678C487.499 222.093 488.064 222.346 488.686 222.346C489.308 222.346 489.885 222.093 490.288 221.678L520.533 239.137V314.69L553.544 295.64L585.402 314.022L617.26 332.414L585.978 350.473L585.402 350.139V350.807L584.826 351.141L585.402 351.475V388.918L617.836 407.633V442.563C616.868 442.817 616.154 443.693 616.154 444.741C616.154 445.986 617.168 447 618.413 447C619.658 447 620.672 445.986 620.672 444.741C620.672 444.534 620.637 444.338 620.58 444.154L651.124 426.521L651.412 426.36V387.592L618.978 406.308V370.202L652 351.118ZM619.024 182.968L650.306 164.909V201.015L619.024 219.073V182.968ZM650.271 313.342L618.989 331.4V295.295L650.271 277.236V313.342ZM650.271 275.231L618.989 257.172V221.067L650.271 239.125V275.231ZM618.424 258.175L649.706 276.234L635.495 284.439L618.424 294.292L588.168 276.833C588.214 276.648 588.26 276.452 588.26 276.245C588.26 276.038 588.226 275.842 588.168 275.657L618.424 258.175ZM585.413 239.137V274.055C585.022 274.159 584.664 274.367 584.388 274.643L569.784 266.207L554.143 257.184V221.078L569.784 230.102L585.413 239.137ZM586.543 89.3677L617.825 71.3091V107.415L586.543 125.485V89.3677ZM586.543 162.915V126.81L617.825 108.751V143.013C616.857 143.267 616.142 144.142 616.142 145.191C616.142 145.399 616.177 145.595 616.234 145.779L586.543 162.915ZM619.024 33.2215L650.306 15.1629V51.2685L619.024 69.327V33.2215ZM617.825 69.9838L586.543 88.0424V51.9369L617.825 33.8783V69.9838ZM554.108 33.8783L585.39 51.9369V88.0424L554.143 70.0069V69.327L554.12 69.3385V33.8783H554.108ZM552.99 71.3207V107.426L522.746 124.885C522.469 124.609 522.112 124.401 521.72 124.298V89.3677L552.99 71.3207ZM521.708 163.584V128.654C522.1 128.55 522.458 128.354 522.734 128.066L552.99 145.525V181.631L521.708 163.584ZM585.413 201.695V237.8L569.772 228.777L554.131 219.753V183.648L585.413 201.695ZM456.851 237.8V201.695L488.133 183.636V217.898C487.164 218.151 486.45 219.027 486.45 220.076C486.45 220.283 486.484 220.479 486.542 220.664L456.851 237.8ZM489.274 217.898V183.636L520.556 201.695V237.8L490.876 220.675C490.922 220.491 490.968 220.295 490.968 220.087C490.968 219.027 490.242 218.151 489.274 217.898ZM521.708 239.137L552.99 221.078V257.184L521.708 275.242V239.137ZM521.708 276.568L552.99 258.509V294.615L521.708 312.673V276.568ZM554.143 294.626V258.521L569.784 267.544L583.823 275.646C583.777 275.83 583.731 276.026 583.731 276.234C583.731 277.282 584.445 278.158 585.413 278.412V312.673L554.143 294.626ZM586.566 278.412C586.958 278.308 587.315 278.112 587.592 277.824L617.836 295.283V331.389L586.554 313.33V278.412H586.566ZM617.848 333.394L618.424 333.06L619.001 333.394L649.706 351.118L618.424 369.177L587.142 351.118L617.848 333.394ZM586.566 352.109L617.848 370.168V406.273L586.566 388.215V352.109ZM650.271 389.552V425.657L620.026 443.116C619.75 442.84 619.393 442.632 619.001 442.529V407.599L650.271 389.552ZM458.534 163.918C458.534 163.711 458.499 163.515 458.441 163.33L488.986 145.698L489.274 145.537V70.6868L519.345 53.3313C519.76 53.9075 520.429 54.2878 521.19 54.2878C522.435 54.2878 523.449 53.2737 523.449 52.029C523.449 50.9803 522.734 50.1045 521.766 49.851V13.1692L489.331 31.8846V-4.88927L455.744 -24.2731V14.5061L487.568 32.8757L456.274 50.9458L426.018 33.4865C426.064 33.3021 426.11 33.1062 426.11 32.8988C426.11 31.6542 425.096 30.64 423.851 30.64C422.606 30.64 421.592 31.6542 421.592 32.8988C421.592 33.9475 422.307 34.8233 423.275 35.0769V69.3385V107.449L391.417 125.842L360.135 107.783L391.705 89.5636L391.993 89.4022V51.9253L392.569 51.5911L391.993 51.2569V14.4945L424.139 -4.05952L424.428 -4.22086V-43L391.129 -23.7775L390.84 -23.6162V13.1577L359.558 -4.90079V-5.5692L358.982 -5.235L325.971 -24.2846V11.9707C325.579 12.0744 325.222 12.2819 324.945 12.5585L294.701 -4.88927V-42.9885L262.266 -24.2731V-24.2846L228.967 -5.06214L228.679 -4.90079V31.8731L197.397 13.8146V13.1462L196.821 13.4804L196.244 13.1462V13.8146L164.386 32.1958L131.375 13.1462V51.2685L100.093 69.327V32.5415L66.5059 13.1577L34.0713 -5.55768V32.553L3.86125 50.0008C3.44631 49.5859 2.88153 49.3324 2.25912 49.3324C1.01429 49.3324 0 50.3465 0 51.5911C0 52.8357 1.01429 53.8499 2.25912 53.8499C2.89306 53.8499 3.45784 53.5963 3.86125 53.1815L34.1059 70.6407V108.751L67.405 89.529L67.6931 89.3677V52.5937L98.9751 70.6523V108.751L130.372 90.6238C130.649 90.9004 131.006 91.1078 131.398 91.2115V126.81L164.985 146.194V108.751L197.42 127.467V88.6992L165.562 70.3181L196.832 52.2711L229.843 71.3207V33.2099L261.125 15.1514V88.6992L228.979 107.253L228.69 107.415V146.182L260.088 128.055C260.503 128.469 261.067 128.723 261.69 128.723C262.935 128.723 263.949 127.709 263.949 126.464C263.949 125.416 263.234 124.54 262.266 124.286V89.3561L294.413 70.8021L294.701 70.6407V33.8783L325.983 51.9369V86.8669C325.015 87.1204 324.3 87.9963 324.3 89.045C324.3 89.2524 324.334 89.4483 324.392 89.6327L293.848 107.265L293.56 107.426V146.194L326.571 127.144L359.005 145.86L391.44 127.144L423.874 145.86L455.733 127.467V161.728C454.764 161.982 454.05 162.858 454.05 163.907C454.05 165.151 455.064 166.165 456.309 166.165C457.519 166.177 458.534 165.163 458.534 163.918ZM488.121 144.868L457.877 162.328C457.6 162.051 457.243 161.844 456.851 161.74V126.81L457.427 126.476L488.133 108.751V144.868H488.121ZM424.416 71.3207L455.698 89.3792V125.485L424.416 107.426V71.3207ZM456.851 89.3677L488.133 71.3091V107.415L456.851 125.473V89.3677ZM488.121 69.9838L456.839 88.0424V51.9369L488.121 33.8783V69.9838ZM520.602 15.1629V49.8394C519.634 50.093 518.919 50.9688 518.919 52.0175C518.919 52.0867 518.931 52.1558 518.942 52.225L489.331 69.3154V33.2215L520.602 15.1629ZM456.897 -22.2794L488.179 -4.22086V31.8846L456.897 13.8261V-22.2794ZM424.416 35.0653C424.808 34.9616 425.165 34.7657 425.442 34.4776L455.687 51.9369V88.0424L424.405 69.9838V35.0653H424.416ZM358.982 69.6496L327.7 51.5911L341.912 43.3859L358.982 33.5326L390.264 51.5911L376.052 59.7964L358.982 69.6496ZM327.124 16.3384C327.516 16.2347 327.873 16.0388 328.15 15.7507L357.818 32.8757L327.112 50.6V16.3384H327.124ZM358.406 31.8731L328.726 14.7365C328.772 14.5522 328.818 14.3562 328.818 14.1488C328.818 13.9414 328.784 13.7455 328.726 13.5611L358.406 -3.57551V31.8731ZM358.406 70.6523V106.758L328.726 89.6212C328.772 89.4368 328.818 89.2409 328.818 89.0334C328.818 87.9847 328.104 87.1089 327.135 86.8554V52.5937L358.406 70.6523ZM327.124 91.2231C327.516 91.1193 327.873 90.9119 328.15 90.6353L357.818 107.76L327.112 125.485V91.2231H327.124ZM390.84 88.6992L359.558 106.758V70.6523L390.84 52.5937V88.6992ZM391.993 -22.9478L423.275 -41.0063V-4.90079L391.993 13.1577V-22.9478ZM390.84 14.4945V50.6L359.558 32.5415V-3.56398L390.84 14.4945ZM357.83 -4.56659L328.161 12.5585C327.885 12.2819 327.527 12.0744 327.135 11.9707V-22.2909L357.83 -4.56659ZM293.548 -40.9948V-4.88927L262.266 13.1692V-22.9363L293.548 -40.9948ZM196.256 15.1514V51.2569L164.974 69.3154V33.2099L196.256 15.1514ZM132.551 15.1514L163.833 33.2099V69.3154L148.192 60.2919L132.551 51.2685V15.1514ZM163.821 106.758L148.18 97.7343L134.141 89.6327C134.187 89.4483 134.234 89.2524 134.234 89.045C134.234 87.9963 133.519 87.1204 132.551 86.8669V52.5937L148.192 61.6172L163.833 70.6407V106.758H163.821ZM98.9636 69.3154L67.6816 51.2569V15.1514L98.9636 33.2099V69.3154ZM35.2585 -3.56398L66.5405 14.4945V50.6L35.2585 32.5415V-3.56398ZM4.42604 51.0034L34.6822 33.5441L65.9642 51.6026L51.7524 59.8079L34.6822 69.6612L4.42604 52.1904C4.47214 52.006 4.51825 51.8101 4.51825 51.6026C4.51825 51.3952 4.48367 51.1993 4.42604 51.0034ZM66.5405 88.6992L35.2585 106.758V70.6523L66.5405 52.5937V88.6992ZM100.116 106.758V70.6523L131.398 52.5937V86.8554C130.43 87.1089 129.715 87.9847 129.715 89.0334C129.715 89.2409 129.75 89.4368 129.808 89.6212L100.116 106.758ZM163.821 144.189L132.539 126.13V91.2C132.931 91.0963 133.288 90.9004 133.565 90.6123L148.169 99.048L163.81 108.072V144.189H163.821ZM196.256 125.473L164.974 107.415V71.3091L196.256 89.3677V125.473ZM228.69 69.3154L197.408 51.2685V15.1514L228.69 33.2099V69.3154ZM229.843 31.8846V-4.23239L261.125 -22.2909V13.8146L229.843 31.8846ZM293.548 -3.55246V32.5415L262.266 50.6V14.4945L293.548 -3.55246ZM229.843 144.2V108.095L261.125 90.0361V124.298C260.157 124.551 259.442 125.427 259.442 126.476C259.442 126.683 259.477 126.879 259.534 127.064L229.843 144.2ZM293.548 69.9838L262.266 88.0424V51.9369L293.548 33.8783V69.9838ZM294.701 -3.56398L324.381 13.5611C324.334 13.7455 324.288 13.9414 324.288 14.1488C324.288 15.1975 325.003 16.0734 325.971 16.3269V50.5885L294.701 32.5415V-3.56398ZM294.701 108.095L324.945 90.6353C325.222 90.9119 325.579 91.1193 325.971 91.2231V126.153L294.689 144.212V108.095H294.701ZM358.982 144.534L327.7 126.476L358.406 108.751L358.982 108.417L359.558 108.751L390.264 126.476L358.982 144.534ZM392.569 126.476L423.851 108.417L455.133 126.476L423.851 144.534L392.569 126.476Z" fill="#E8E8E8"/>
</svg>
