<svg width="1920" height="213" viewBox="0 0 1920 213" fill="none" xmlns="http://www.w3.org/2000/svg">
<g clip-path="url(#clip0_1_316)">
<path d="M-1034.51 250.234C-875.097 206.235 -782.446 231.144 -623.029 187.145C-463.613 143.146 -556.264 118.238 -396.893 74.2514C-237.522 30.2651 -144.825 55.1607 14.5914 11.1618C174.008 -32.8371 81.3568 -57.7454 240.773 -101.744C400.19 -145.743 492.841 -120.835 652.304 -164.847C811.766 -208.858 719.069 -233.754 878.486 -277.753" stroke="white" stroke-miterlimit="10"/>
<path d="M123.451 560.555C282.868 516.556 375.519 541.464 534.936 497.465C694.352 453.466 601.701 428.558 761.072 384.572C920.443 340.585 1013.14 365.481 1172.56 321.482C1331.97 277.483 1239.32 252.575 1398.74 208.576C1558.15 164.577 1650.81 189.485 1810.27 145.474C1969.73 101.462 1877.03 76.5666 2036.45 32.5677" stroke="white" stroke-miterlimit="10"/>
<path d="M-464.245 402.766C-304.828 358.767 -212.177 383.675 -52.7607 339.676C106.656 295.677 14.0048 270.769 173.376 226.783C332.746 182.796 425.443 207.692 584.86 163.693C744.277 119.694 651.625 94.7859 811.042 50.787C970.459 6.78805 1063.11 31.6963 1222.57 -12.3153C1382.03 -56.3269 1289.34 -81.2225 1448.75 -125.221" stroke="white" stroke-miterlimit="10"/>
<path d="M691.416 717.742C850.833 673.743 943.484 698.652 1102.9 654.653C1262.32 610.654 1169.67 585.745 1329.04 541.759C1488.41 497.773 1581.1 522.669 1740.52 478.67C1899.94 434.671 1807.29 409.762 1966.7 365.764C2126.12 321.765 2218.77 346.673 2378.23 302.661C2537.7 258.65 2445 233.754 2604.42 189.755" stroke="white" stroke-miterlimit="10"/>
<path d="M-754.281 331.461C-594.865 287.462 -502.214 312.37 -342.797 268.371C-183.38 224.372 -276.031 199.464 -116.661 155.478C42.7102 111.492 135.407 136.387 294.824 92.3883C454.24 48.3894 361.589 23.4812 521.006 -20.5177C680.422 -64.5166 773.074 -39.6084 932.536 -83.62C1092 -127.632 999.302 -152.527 1158.72 -196.526" stroke="white" stroke-miterlimit="10"/>
<path d="M401.381 641.266C560.797 597.267 653.449 622.175 812.865 578.176C972.282 534.177 879.631 509.269 1039 465.283C1198.37 421.296 1291.07 446.192 1450.49 402.193C1609.9 358.194 1517.25 333.286 1676.67 289.287C1836.08 245.288 1928.74 270.196 2088.2 226.185C2247.66 182.173 2154.96 157.278 2314.38 113.279" stroke="white" stroke-miterlimit="10"/>
<path d="M-184.014 484C-24.597 440.001 68.0541 464.909 227.471 420.91C386.887 376.911 294.236 352.003 453.607 308.017C612.978 264.031 705.675 288.926 865.091 244.927C1024.51 200.928 931.857 176.02 1091.27 132.021C1250.69 88.0224 1343.34 112.931 1502.8 68.9191C1662.27 24.9075 1569.57 0.0119194 1728.99 -43.987" stroke="white" stroke-miterlimit="10"/>
<path d="M-1073.25 235.852C-913.833 191.853 -821.182 216.761 -661.766 172.762C-502.349 128.763 -595 103.855 -435.629 59.8686C-276.259 15.8823 -183.562 40.7779 -24.145 -3.22103C135.272 -47.2199 42.6205 -72.1282 202.037 -116.127C361.454 -160.126 454.105 -135.218 613.567 -179.229C773.03 -223.241 680.333 -248.137 839.75 -292.135" stroke="white" stroke-miterlimit="10"/>
<path d="M84.7168 546.172C244.133 502.173 336.785 527.081 496.201 483.082C655.618 439.083 562.967 414.175 722.337 370.189C881.708 326.203 974.405 351.098 1133.82 307.099C1293.24 263.1 1200.59 238.192 1360 194.193C1519.42 150.194 1612.07 175.103 1771.53 131.091C1931 87.0794 1838.3 62.1838 1997.72 18.1849" stroke="white" stroke-miterlimit="10"/>
<path d="M-502.981 388.383C-343.565 344.384 -250.914 369.292 -91.4971 325.293C67.9196 281.294 -24.7315 256.386 134.639 212.4C294.01 168.414 386.707 193.309 546.124 149.31C705.54 105.311 612.889 80.4031 772.306 36.4042C931.722 -7.59476 1024.37 17.3135 1183.84 -26.6981C1343.3 -70.7097 1250.6 -95.6053 1410.02 -139.604" stroke="white" stroke-miterlimit="10"/>
<path d="M652.682 703.359C812.098 659.36 904.749 684.269 1064.17 640.27C1223.58 596.271 1130.93 571.363 1290.3 527.376C1449.67 483.39 1542.37 508.286 1701.79 464.287C1861.2 420.288 1768.55 395.38 1927.97 351.381C2087.39 307.382 2180.04 332.29 2339.5 288.278C2498.96 244.267 2406.26 219.371 2565.68 175.372" stroke="white" stroke-miterlimit="10"/>
<path d="M-793.017 317.078C-633.6 273.079 -540.949 297.987 -381.532 253.989C-222.116 209.99 -314.767 185.081 -155.396 141.095C3.97482 97.1089 96.6718 122.004 256.088 78.0055C415.505 34.0066 322.854 9.09838 482.27 -34.9005C641.687 -78.8994 734.338 -53.9912 893.801 -98.0028C1053.26 -142.014 960.566 -166.91 1119.98 -210.909" stroke="white" stroke-miterlimit="10"/>
<path d="M362.645 626.883C522.061 582.884 614.712 607.792 774.129 563.793C933.546 519.794 840.894 494.886 1000.27 450.9C1159.64 406.914 1252.33 431.809 1411.75 387.81C1571.17 343.811 1478.52 318.903 1637.93 274.904C1797.35 230.905 1890 255.813 2049.46 211.802C2208.92 167.79 2116.23 142.895 2275.64 98.8958" stroke="white" stroke-miterlimit="10"/>
<path d="M-222.749 469.617C-63.3324 425.618 29.3187 450.527 188.735 406.528C348.152 362.529 255.501 337.62 414.872 293.634C574.242 249.648 666.939 274.544 826.356 230.545C985.773 186.546 893.121 161.637 1052.54 117.639C1211.95 73.6396 1304.61 98.5478 1464.07 54.5363C1623.53 10.5247 1530.83 -14.3709 1690.25 -58.3698" stroke="white" stroke-miterlimit="10"/>
<path d="M-1182.09 209.273C-1022.67 165.275 -930.023 190.183 -770.606 146.184C-611.19 102.185 -703.841 77.2767 -544.47 33.2904C-385.099 -10.6958 -292.402 14.1998 -132.986 -29.7992C26.4308 -73.7981 -66.2204 -98.7063 93.1963 -142.705C252.613 -186.704 345.264 -161.796 504.727 -205.807C664.189 -249.819 571.492 -274.715 730.909 -318.714" stroke="white" stroke-miterlimit="10"/>
<path d="M-24.124 519.602C135.293 475.603 227.944 500.511 387.36 456.512C546.777 412.513 454.126 387.605 613.497 343.619C772.867 299.632 865.564 324.528 1024.98 280.529C1184.4 236.53 1091.75 211.622 1251.16 167.623C1410.58 123.624 1503.23 148.532 1662.69 104.521C1822.16 60.5091 1729.46 35.6135 1888.88 -8.38543" stroke="white" stroke-miterlimit="10"/>
<path d="M-611.822 366.992C-452.406 322.993 -359.755 347.902 -200.338 303.903C-40.9213 259.904 -133.572 234.995 25.7984 191.009C185.169 147.023 277.866 171.919 437.283 127.92C596.699 83.9207 504.048 59.0124 663.465 15.0135C822.881 -28.9854 915.533 -4.07715 1075 -48.0887C1234.46 -92.1003 1141.76 -116.996 1301.18 -160.995" stroke="white" stroke-miterlimit="10"/>
<path d="M543.84 676.789C703.256 632.79 795.908 657.698 955.324 613.699C1114.74 569.701 1022.09 544.792 1181.46 500.806C1340.83 456.82 1433.53 481.715 1592.94 437.716C1752.36 393.718 1659.71 368.809 1819.13 324.81C1978.54 280.811 2071.19 305.72 2230.66 261.708C2390.12 217.697 2297.42 192.801 2456.84 148.802" stroke="white" stroke-miterlimit="10"/>
<path d="M-901.858 290.508C-742.442 246.509 -649.791 271.417 -490.374 227.418C-330.957 183.419 -423.608 158.511 -264.238 114.525C-104.867 70.5385 -12.17 95.4341 147.247 51.4352C306.663 7.4363 214.012 -17.4719 373.429 -61.4708C532.845 -105.47 625.496 -80.5615 784.959 -124.573C944.421 -168.585 851.724 -193.48 1011.14 -237.479" stroke="white" stroke-miterlimit="10"/>
<path d="M256.108 600.828C415.525 556.829 508.176 581.737 667.593 537.739C827.009 493.74 734.358 468.831 893.729 424.845C1053.1 380.859 1145.8 405.754 1305.21 361.756C1464.63 317.757 1371.98 292.848 1531.4 248.849C1690.81 204.851 1783.46 229.759 1942.93 185.747C2102.39 141.736 2009.69 116.84 2169.11 72.8411" stroke="white" stroke-miterlimit="10"/>
<path d="M-331.59 443.039C-172.173 399.04 -79.5221 423.948 79.8945 379.949C239.311 335.951 146.66 311.042 306.031 267.056C465.402 223.07 558.099 247.965 717.515 203.966C876.932 159.968 784.281 135.059 943.697 91.0604C1103.11 47.0615 1195.77 71.9697 1355.23 27.9581C1514.69 -16.0534 1421.99 -40.949 1581.41 -84.9479" stroke="white" stroke-miterlimit="10"/>
<path d="M-988.188 262.688C-828.771 218.689 -736.12 243.597 -576.703 199.598C-417.286 155.599 -509.938 130.691 -350.567 86.7045C-191.196 42.7182 -98.4991 67.6138 60.9175 23.6149C220.334 -20.384 127.683 -45.2922 287.1 -89.2912C446.516 -133.29 539.167 -108.382 698.63 -152.393C858.092 -196.405 765.395 -221.301 924.812 -265.299" stroke="white" stroke-miterlimit="10"/>
<path d="M169.778 573.008C329.195 529.009 421.846 553.917 581.263 509.918C740.679 465.919 648.028 441.011 807.399 397.025C966.77 353.039 1059.47 377.934 1218.88 333.935C1378.3 289.936 1285.65 265.028 1445.07 221.029C1604.48 177.03 1697.13 201.938 1856.6 157.927C2016.06 113.915 1923.36 89.0197 2082.78 45.0208" stroke="white" stroke-miterlimit="10"/>
<path d="M-417.92 415.227C-258.503 371.228 -165.852 396.136 -6.43555 352.137C152.981 308.138 60.33 283.23 219.701 239.244C379.071 195.257 471.768 220.153 631.185 176.154C790.602 132.155 697.951 107.247 857.367 63.2479C1016.78 19.249 1109.43 44.1572 1268.9 0.145647C1428.36 -43.8659 1335.66 -68.7615 1495.08 -112.76" stroke="white" stroke-miterlimit="10"/>
<path d="M737.743 730.203C897.16 686.204 989.811 711.112 1149.23 667.114C1308.64 623.115 1215.99 598.206 1375.36 554.22C1534.73 510.234 1627.43 535.129 1786.85 491.131C1946.26 447.132 1853.61 422.223 2013.03 378.224C2172.45 334.226 2265.1 359.134 2424.56 315.122C2584.02 271.111 2491.33 246.215 2650.74 202.216" stroke="white" stroke-miterlimit="10"/>
<path d="M-707.956 343.922C-548.539 299.923 -455.888 324.831 -296.472 280.832C-137.055 236.833 -229.706 211.925 -70.3354 167.939C89.0354 123.953 181.732 148.848 341.149 104.849C500.566 60.8504 407.914 35.9421 567.331 -8.05678C726.748 -52.0557 819.399 -27.1475 978.861 -71.159C1138.32 -115.171 1045.63 -140.066 1205.04 -184.065" stroke="white" stroke-miterlimit="10"/>
<path d="M447.705 653.719C607.122 609.72 699.773 634.628 859.189 590.629C1018.61 546.63 925.955 521.722 1085.33 477.736C1244.7 433.749 1337.39 458.645 1496.81 414.646C1656.23 370.647 1563.58 345.739 1722.99 301.74C1882.41 257.741 1975.06 282.649 2134.52 238.638C2293.98 194.626 2201.29 169.731 2360.7 125.732" stroke="white" stroke-miterlimit="10"/>
<path d="M-137.688 496.453C21.7291 452.454 114.38 477.362 273.797 433.364C433.214 389.365 340.562 364.456 499.933 320.47C659.304 276.484 752.001 301.379 911.418 257.381C1070.83 213.382 978.183 188.473 1137.6 144.474C1297.02 100.476 1389.67 125.384 1549.13 81.3722C1708.59 37.3606 1615.9 12.465 1775.31 -31.5339" stroke="white" stroke-miterlimit="10"/>
<path d="M-377.915 430.586C-218.498 386.587 -125.847 411.495 33.5693 367.496C192.986 323.497 100.335 298.589 259.706 254.603C419.076 210.617 511.773 235.512 671.19 191.513C830.607 147.514 737.955 122.606 897.372 78.6073C1056.79 34.6084 1149.44 59.5166 1308.9 15.505C1468.36 -28.5066 1375.67 -53.4021 1535.08 -97.4011" stroke="white" stroke-miterlimit="10"/>
<path d="M-1228.42 196.82C-1069 152.821 -976.348 177.73 -816.932 133.731C-657.515 89.7318 -750.166 64.8236 -590.795 20.8373C-431.425 -23.149 -338.728 1.74663 -179.311 -42.2523C-19.8944 -86.2512 -112.546 -111.159 46.8711 -155.158C206.288 -199.157 298.939 -174.249 458.401 -218.261C617.864 -262.272 525.167 -287.168 684.584 -331.167" stroke="white" stroke-miterlimit="10"/>
<path d="M-70.4492 507.141C88.9674 463.142 181.619 488.05 341.035 444.051C500.452 400.052 407.801 375.144 567.171 331.158C726.542 287.171 819.239 312.067 978.656 268.068C1138.07 224.069 1045.42 199.161 1204.84 155.162C1364.25 111.163 1456.91 136.071 1616.37 92.0597C1775.83 48.0481 1683.13 23.1525 1842.55 -20.8464" stroke="white" stroke-miterlimit="10"/>
<path d="M-658.147 354.539C-498.731 310.54 -406.08 335.448 -246.663 291.449C-87.2465 247.451 -179.898 222.542 -20.5268 178.556C138.844 134.57 231.541 159.465 390.958 115.466C550.374 71.4676 457.723 46.5593 617.14 2.56041C776.556 -41.4385 869.207 -16.5303 1028.67 -60.5419C1188.13 -104.553 1095.44 -129.449 1254.85 -173.448" stroke="white" stroke-miterlimit="10"/>
<path d="M497.515 664.336C656.931 620.337 749.582 645.245 908.999 601.246C1068.42 557.247 975.765 532.339 1135.14 488.353C1294.51 444.367 1387.2 469.262 1546.62 425.263C1706.04 381.264 1613.39 356.356 1772.8 312.357C1932.22 268.358 2024.87 293.267 2184.33 249.255C2343.79 205.243 2251.1 180.348 2410.51 136.349" stroke="white" stroke-miterlimit="10"/>
<path d="M-948.184 278.055C-788.767 234.056 -696.116 258.964 -536.699 214.965C-377.283 170.966 -469.934 146.058 -310.563 102.072C-151.192 58.0854 -58.4952 82.981 100.921 38.9821C260.338 -5.01682 167.687 -29.9251 327.104 -73.924C486.52 -117.923 579.171 -93.0147 738.634 -137.026C898.096 -181.038 805.399 -205.933 964.816 -249.932" stroke="white" stroke-miterlimit="10"/>
<path d="M209.782 588.375C369.199 544.376 461.85 569.284 621.267 525.285C780.683 481.286 688.032 456.378 847.403 412.392C1006.77 368.406 1099.47 393.301 1258.89 349.302C1418.3 305.303 1325.65 280.395 1485.07 236.396C1644.49 192.397 1737.14 217.306 1896.6 173.294C2056.06 129.283 1963.37 104.387 2122.78 60.388" stroke="white" stroke-miterlimit="10"/>
<path d="M-1119.58 223.398C-960.159 179.4 -867.507 204.308 -708.091 160.309C-548.674 116.31 -641.325 91.4017 -481.955 47.4154C-322.584 3.42917 -229.887 28.3248 -70.4702 -15.6742C88.9465 -59.6731 -3.70473 -84.5813 155.712 -128.58C315.129 -172.579 407.78 -147.671 567.242 -191.682C726.705 -235.694 634.008 -260.59 793.424 -304.589" stroke="white" stroke-miterlimit="10"/>
<path d="M38.3916 533.719C197.808 489.72 290.459 514.628 449.876 470.629C609.293 426.63 516.642 401.722 676.012 357.736C835.383 313.749 928.08 338.645 1087.5 294.646C1246.91 250.647 1154.26 225.739 1313.68 181.74C1473.1 137.741 1565.75 162.649 1725.21 118.638C1884.67 74.6263 1791.97 49.7307 1951.39 5.73175" stroke="white" stroke-miterlimit="10"/>
<path d="M-549.307 375.93C-389.89 331.931 -297.239 356.839 -137.822 312.84C21.5944 268.841 -71.0567 243.933 88.314 199.947C247.685 155.96 340.382 180.856 499.798 136.857C659.215 92.8582 566.564 67.9499 725.98 23.951C885.397 -20.0479 978.048 4.86035 1137.51 -39.1512C1296.97 -83.1628 1204.28 -108.058 1363.69 -152.057" stroke="white" stroke-miterlimit="10"/>
<path d="M606.355 690.906C765.772 646.907 858.423 671.816 1017.84 627.817C1177.26 583.818 1084.61 558.909 1243.98 514.923C1403.35 470.937 1496.04 495.833 1655.46 451.834C1814.88 407.835 1722.23 382.927 1881.64 338.928C2041.06 294.929 2133.71 319.837 2293.17 275.825C2452.64 231.814 2359.94 206.918 2519.35 162.919" stroke="white" stroke-miterlimit="10"/>
<path d="M-839.343 304.625C-679.926 260.626 -587.275 285.534 -427.858 241.535C-268.442 197.536 -361.093 172.628 -201.722 128.642C-42.3514 84.6557 50.3456 109.551 209.762 65.5524C369.179 21.5535 276.528 -3.35474 435.944 -47.3537C595.361 -91.3526 688.012 -66.4443 847.475 -110.456C1006.94 -154.467 914.24 -179.363 1073.66 -223.362" stroke="white" stroke-miterlimit="10"/>
<path d="M316.32 614.422C475.737 570.423 568.388 595.331 727.805 551.332C887.221 507.333 794.57 482.425 953.941 438.439C1113.31 394.453 1206.01 419.348 1365.43 375.349C1524.84 331.35 1432.19 306.442 1591.61 262.443C1751.02 218.444 1843.68 243.353 2003.14 199.341C2162.6 155.329 2069.9 130.434 2229.32 86.4349" stroke="white" stroke-miterlimit="10"/>
<path d="M-269.075 457.164C-109.659 413.165 -17.0074 438.073 142.409 394.074C301.826 350.076 209.175 325.167 368.545 281.181C527.916 237.195 620.613 262.09 780.03 218.091C939.446 174.093 846.795 149.184 1006.21 105.185C1165.63 61.1865 1258.28 86.0947 1417.74 42.0831C1577.2 -1.92843 1484.51 -26.824 1643.92 -70.8229" stroke="white" stroke-miterlimit="10"/>
</g>
<defs>
<clipPath id="clip0_1_316">
<rect width="1920" height="213" fill="white"/>
</clipPath>
</defs>
</svg>
