<svg width="48" height="48" viewBox="0 0 48 48" fill="none" xmlns="http://www.w3.org/2000/svg">
<path fill-rule="evenodd" clip-rule="evenodd" d="M16.019 29.8287C16.0257 37.8675 16.027 42.6042 16.0224 44.0382C16.0214 44.2958 15.8112 44.5052 15.5536 44.5052H10.6494C10.3912 44.5052 10.1806 44.2947 10.1806 44.0365V29.8289C10.1806 29.5708 10.3912 29.3602 10.6494 29.3602H15.5502C15.8083 29.3602 16.0188 29.5706 16.019 29.8287ZM32.7975 42.4936H29.2605C29.2605 42.4999 29.195 42.4958 29.1857 42.4956C28.4287 42.5356 27.8165 43.1787 27.8165 43.9378C27.8165 44.7338 28.4823 45.3815 29.2602 45.3815L29.2603 45.3786H32.7973C33.5863 45.3786 34.2414 44.7272 34.2414 43.9378H34.2385C34.2385 43.1467 33.5887 42.4966 32.7974 42.4966V42.4936H32.7975ZM34.1043 38.1144H29.2604C28.4714 38.1144 27.8164 38.7658 27.8163 39.5553C27.8164 40.3448 28.4713 40.9964 29.2604 40.9964C29.2604 41.0026 34.1043 40.9888 34.1043 40.9993C34.8938 40.9993 35.5453 40.3443 35.5453 39.5552C35.5453 38.7643 34.8954 38.1144 34.1043 38.1144ZM28.3375 33.7323C27.5463 33.7323 26.8963 34.3823 26.8963 35.1734C26.8963 35.9646 27.5464 36.6144 28.3375 36.6144H35.6418C36.4308 36.6144 37.0858 35.9628 37.0858 35.1734C37.0857 34.384 36.4308 33.7323 35.6418 33.7323H28.3375ZM29.2605 32.2323H34.7188C35.51 32.2323 36.1599 31.5823 36.1599 30.7913C36.1599 30.0002 35.5099 29.3503 34.7188 29.3503H29.2603C28.4714 29.3503 27.8164 30.0018 27.8164 30.7912H27.8193C27.8194 31.5823 28.4693 32.2323 29.2605 32.2323ZM25.5072 29.4994L25.5068 29.4997C26.6267 31.135 26.3819 32.5003 25.7048 33.5423C24.9654 34.6801 23.7327 35.4912 23.0544 35.8808C22.6968 36.0863 22.5735 36.5427 22.7789 36.9003C22.9844 37.2579 23.4409 37.3812 23.7985 37.1758C24.2364 36.9243 24.8727 36.5204 25.5079 35.9755C25.7245 36.7359 26.2435 37.3798 26.9363 37.7576C26.5518 38.2541 26.3223 38.8782 26.3222 39.5554C26.3223 40.3669 26.6518 41.1023 27.1827 41.6332C27.3261 41.7765 27.326 41.7165 27.1827 41.8599C26.1962 42.8463 26.0431 44.4139 26.8175 45.5707C22.662 46.2806 19.9502 46.5923 17.406 44.704C17.4806 44.4974 17.5215 44.275 17.5223 44.043C17.5377 39.3052 17.5228 34.5654 17.5189 29.8274C17.5187 29.6296 17.4893 29.4385 17.4346 29.2583C17.5284 29.192 17.6231 29.1253 17.7178 29.0585C20.2634 27.2639 22.8896 25.4127 22.8896 21.788V17.9998C25.1865 18.3673 26.9041 20.3709 26.9041 22.704V26.2288C26.7653 27.0658 26.1861 27.9584 25.5946 28.5505C25.3373 28.8091 25.3084 29.209 25.5072 29.4994ZM33.6747 12.2864L32.2553 16.0252C32.2126 16.1376 32.1133 16.2098 31.9932 16.2156L27.9988 16.4103C27.7272 16.4235 27.616 16.7657 27.8279 16.9362L30.945 19.4415C31.0387 19.5168 31.0767 19.6336 31.0452 19.7496L29.996 23.6086C29.9247 23.871 30.2157 24.0826 30.4433 23.9337L33.7893 21.7433C33.8899 21.6775 34.0126 21.6775 34.1132 21.7433L37.4592 23.9337C37.6867 24.0826 37.9778 23.8711 37.9064 23.6087L36.8573 19.7496C36.8258 19.6336 36.8637 19.5168 36.9574 19.4415L40.0745 16.9362C40.2865 16.7657 40.1753 16.4235 39.9036 16.4103L35.9092 16.2156C35.7891 16.2098 35.6898 16.1376 35.6472 16.0252L34.2277 12.2864C34.1317 12.0336 33.7707 12.0336 33.6747 12.2864ZM23.4607 2.07237C23.5567 1.81962 23.9176 1.81962 24.0136 2.07237L25.4331 5.81113C25.4757 5.92353 25.575 5.99572 25.6952 6.00153L29.6896 6.19625C29.9613 6.20947 30.0725 6.55175 29.8605 6.72209L26.7434 9.22747C26.6497 9.30275 26.6118 9.41956 26.6433 9.53553L27.6925 13.3946C27.7638 13.6571 27.4727 13.8685 27.2452 13.7195L23.8992 11.5292C23.7987 11.4634 23.6759 11.4634 23.5753 11.5292L20.2293 13.7195C20.0017 13.8685 19.7107 13.657 19.782 13.3945L20.8312 9.53544C20.8628 9.41947 20.8248 9.30266 20.7311 9.22737L17.614 6.722C17.402 6.55156 17.5132 6.20937 17.7848 6.19616L21.7792 6.00144C21.8993 5.99563 21.9986 5.92344 22.0413 5.81103L23.4607 2.07237ZM14.3309 12.2864C14.2349 12.0336 13.874 12.0336 13.778 12.2864L12.3585 16.0252C12.3159 16.1376 12.2166 16.2098 12.0965 16.2156L8.10209 16.4103C7.8304 16.4235 7.71922 16.7657 7.93118 16.9362L11.0483 19.4415C11.1419 19.5168 11.1799 19.6336 11.1483 19.7496L10.0992 23.6087C10.0278 23.8711 10.3189 24.0826 10.5464 23.9337L13.8924 21.7433C13.993 21.6775 14.1157 21.6775 14.2163 21.7433L17.5623 23.9337C17.7899 24.0826 18.0809 23.8711 18.0096 23.6086L16.9604 19.7496C16.9288 19.6336 16.9668 19.5168 17.0605 19.4415L20.1776 16.9362C20.3895 16.7657 20.2783 16.4235 20.0067 16.4103L16.0122 16.2156C15.8922 16.2098 15.7929 16.1376 15.7502 16.0252L14.3309 12.2864Z" fill="#51AA1B"/>
</svg>
