<svg width="48" height="48" viewBox="0 0 48 48" fill="none" xmlns="http://www.w3.org/2000/svg">
<path fill-rule="evenodd" clip-rule="evenodd" d="M7.64872 22.8073C7.80454 24.8096 8.32363 26.7889 9.20554 28.6384L6.15379 30.4003C4.9701 28.0037 4.29435 25.4193 4.12682 22.8074H7.64872V22.8073ZM25.0881 8.87175C27.6704 8.87175 29.7639 10.9652 29.7639 13.5475C29.7639 16.1299 27.6704 18.2233 25.0881 18.2233C22.5058 18.2233 20.4123 16.1299 20.4123 13.5475C20.4123 10.9652 22.5058 8.87175 25.0881 8.87175ZM16.8861 27.4135H33.2901C33.833 27.4135 34.232 26.916 34.1137 26.386C33.1912 22.2515 29.5006 19.1608 25.0881 19.1608C20.6755 19.1608 16.985 22.2515 16.0625 26.3861C15.9442 26.916 16.3431 27.4135 16.8861 27.4135ZM23.724 35.8407C24.524 35.9384 25.1811 35.6977 25.4038 34.8667C25.6039 34.1196 25.1317 33.4187 24.4279 33.1723C22.1564 32.7558 19.9558 31.9602 18.225 31.3344C15.7416 30.4366 15.0932 30.2255 12.6435 31.6438L8.23729 34.1949L11.8963 40.6603L12.1856 40.4933C12.3637 40.391 12.5664 40.3703 12.7504 40.4194L22.6855 43.0792C24.1275 43.4655 25.0023 43.3105 26.2195 42.561L39.8631 34.1598C40.2882 33.8981 40.497 33.2905 40.4354 32.6964C40.385 32.2102 40.1489 31.7707 39.7017 31.5441C38.992 31.1846 37.7593 31.292 35.8528 32.4023L28.3055 36.7983C27.6992 37.1513 27.0753 37.3758 26.4276 37.4845C24.5563 37.7988 21.7379 36.9167 20.0621 36.4381C19.5235 36.2843 18.9768 36.1282 18.4428 35.9851C18.0432 35.8783 17.8058 35.4678 17.9126 35.0681C18.0193 34.6685 18.43 34.4311 18.8295 34.5379C20.4583 34.9742 22.0733 35.4989 23.724 35.8407ZM5.9645 33.2244L11.9292 43.7636C12.2175 44.2733 12.0366 44.9261 11.527 45.2145L9.49813 46.3628C8.9885 46.6511 8.33563 46.4702 8.04725 45.9606L2.0826 35.4214C1.79422 34.9118 1.97516 34.2589 2.48479 33.9705L4.51363 32.8223C5.02316 32.5339 5.67613 32.7148 5.9645 33.2244ZM4.59679 34.8042C4.20097 34.8621 3.92694 35.2298 3.98488 35.6257C4.04272 36.0217 4.4106 36.2956 4.80641 36.2378C5.20222 36.1799 5.47625 35.812 5.41832 35.4162C5.36038 35.0203 4.9926 34.7463 4.59679 34.8042ZM4.12682 20.2184C4.30091 17.5082 5.0135 14.9426 6.15922 12.6287L9.22925 14.4011C8.38504 16.1848 7.84213 18.1465 7.6625 20.2184H4.12682ZM7.45522 10.3876C8.92269 8.19084 10.8123 6.29906 13.0093 4.82991L14.7637 7.86844C13.0965 9.02044 11.6572 10.4746 10.5148 12.1539L7.45522 10.3876ZM15.2503 3.53334C17.5621 2.38781 20.127 1.67391 22.8416 1.50047V5.02125C20.7527 5.18006 18.7864 5.72016 17.0039 6.57075L15.2503 3.53334ZM25.4304 1.5V5.02181C33.9627 5.68003 40.6812 12.8118 40.6812 21.5129C40.6812 22.2095 40.6378 22.8959 40.5541 23.5698H39.398C39.0598 23.5698 38.871 23.9586 39.0803 24.2243L42.2033 28.191C42.3652 28.3965 42.6769 28.3966 42.8387 28.191L45.9617 24.2243C46.171 23.9586 45.9823 23.5699 45.644 23.5698H44.0914C44.1603 22.8936 44.1958 22.2074 44.1958 21.5129C44.1957 10.8702 35.9053 2.16525 25.4304 1.5Z" fill="#51AA1B"/>
</svg>
