<svg width="14" height="14" viewBox="0 0 14 14" fill="none" xmlns="http://www.w3.org/2000/svg">
<path fill-rule="evenodd" clip-rule="evenodd" d="M7.0007 0.600098C5.26255 0.600098 5.0444 0.607698 4.36175 0.638748C3.6804 0.669948 3.21535 0.777798 2.8084 0.936098C2.38745 1.09955 2.0304 1.3182 1.67465 1.6741C1.31865 2.0298 1.09995 2.3869 0.935948 2.8077C0.777298 3.21475 0.669298 3.67995 0.638648 4.36105C0.608098 5.0437 0.600098 5.262 0.600098 7.00015C0.600098 8.7383 0.607848 8.95575 0.638748 9.63845C0.670098 10.3198 0.777948 10.7848 0.936098 11.1918C1.0997 11.6127 1.31835 11.9698 1.67425 12.3255C2.02985 12.6815 2.3869 12.9007 2.8076 13.0642C3.2148 13.2224 3.68 13.3303 4.3612 13.3615C5.0439 13.3926 5.2619 13.4002 6.9999 13.4002C8.7382 13.4002 8.95565 13.3926 9.63835 13.3615C10.3196 13.3303 10.7852 13.2224 11.1925 13.0642C11.6133 12.9007 11.9698 12.6815 12.3254 12.3255C12.6814 11.9698 12.9001 11.6127 13.0641 11.1919C13.2214 10.7848 13.3294 10.3196 13.3614 9.63855C13.3921 8.9559 13.4001 8.7383 13.4001 7.00015C13.4001 5.262 13.3921 5.04385 13.3614 4.3612C13.3294 3.67985 13.2214 3.21475 13.0641 2.80785C12.9001 2.3869 12.6814 2.0298 12.3254 1.6741C11.9694 1.3181 11.6134 1.0994 11.1921 0.936098C10.784 0.777798 10.3187 0.669948 9.6374 0.638748C8.9547 0.607698 8.7374 0.600098 6.9987 0.600098H7.0007ZM6.78725 1.75335H6.7874L7.0007 1.7534C8.7095 1.7534 8.91205 1.75955 9.58685 1.7902C10.2108 1.81875 10.5495 1.923 10.7751 2.0106C11.0738 2.1266 11.2867 2.2653 11.5106 2.4893C11.7346 2.7133 11.8733 2.92665 11.9895 3.2253C12.0771 3.45065 12.1815 3.7893 12.2099 4.4133C12.2406 5.088 12.2473 5.29065 12.2473 6.9987C12.2473 8.7067 12.2406 8.90935 12.2099 9.58405C12.1814 10.208 12.0771 10.5467 11.9895 10.772C11.8735 11.0707 11.7346 11.2834 11.5106 11.5072C11.2866 11.7312 11.0739 11.8699 10.7751 11.9859C10.5498 12.0739 10.2108 12.1779 9.58685 12.2064C8.9122 12.2371 8.7095 12.2438 7.0007 12.2438C5.29175 12.2438 5.0892 12.2371 4.41455 12.2064C3.79055 12.1776 3.45185 12.0734 3.22615 11.9858C2.92745 11.8698 2.7141 11.7311 2.4901 11.5071C2.2661 11.2831 2.12745 11.0703 2.0112 10.7715C1.9236 10.5462 1.8192 10.2075 1.7908 9.5835C1.7601 8.90885 1.754 8.70615 1.754 6.9971C1.754 5.288 1.7601 5.0864 1.7908 4.4117C1.8193 3.7877 1.9236 3.44905 2.0112 3.22345C2.1272 2.92475 2.2661 2.71145 2.4901 2.48745C2.7141 2.26345 2.92745 2.12475 3.22615 2.0085C3.45175 1.9205 3.79055 1.8165 4.41455 1.7878C5.00495 1.76115 5.23375 1.75315 6.42655 1.7518V1.7534C6.538 1.75325 6.6579 1.7533 6.78725 1.75335ZM9.649 3.58385C9.649 3.1597 9.993 2.8161 10.417 2.8161V2.81585C10.841 2.81585 11.185 3.15985 11.185 3.58385C11.185 4.00785 10.841 4.35185 10.417 4.35185C9.993 4.35185 9.649 4.00785 9.649 3.58385ZM7.00055 3.71345C5.18555 3.7135 3.714 5.1851 3.714 7.00015C3.714 8.81525 5.1856 10.2862 7.0007 10.2862C8.8158 10.2862 10.2868 8.81525 10.2868 7.00015C10.2868 5.18505 8.81565 3.71345 7.00055 3.71345ZM9.13405 7.00015C9.13405 5.82185 8.17885 4.8668 7.0007 4.8668C5.8224 4.8668 4.86735 5.82185 4.86735 7.00015C4.86735 8.1783 5.8224 9.1335 7.0007 9.1335C8.17885 9.1335 9.13405 8.1783 9.13405 7.00015Z" fill="#BABABA"/>
</svg>
