<?xml version="1.0" encoding="UTF-8"?>
<svg id="Layer_1" data-name="Layer 1" xmlns="http://www.w3.org/2000/svg" viewBox="0 0 1500 1500">
  <defs>
    <style>
      .cls-1 {
        stroke-width: 12px;
      }

      .cls-1, .cls-2, .cls-3, .cls-4, .cls-5, .cls-6, .cls-7, .cls-8, .cls-9, .cls-10, .cls-11 {
        stroke-linejoin: round;
      }

      .cls-1, .cls-2, .cls-3, .cls-4, .cls-5, .cls-6, .cls-7, .cls-8, .cls-9, .cls-10, .cls-11, .cls-12 {
        stroke-linecap: round;
      }

      .cls-1, .cls-2, .cls-3, .cls-4, .cls-5, .cls-6, .cls-7, .cls-13, .cls-11, .cls-12, .cls-14, .cls-15, .cls-16, .cls-17 {
        stroke: #231f20;
      }

      .cls-1, .cls-2, .cls-3, .cls-5, .cls-6, .cls-7, .cls-18, .cls-13, .cls-12, .cls-14, .cls-15 {
        fill: none;
      }

      .cls-2, .cls-12, .cls-15 {
        stroke-width: 13px;
      }

      .cls-3 {
        stroke-width: 10.24px;
      }

      .cls-4, .cls-19, .cls-11, .cls-16, .cls-17 {
        fill: #231f20;
      }

      .cls-5, .cls-14 {
        stroke-width: 15px;
      }

      .cls-6 {
        stroke-width: 19px;
      }

      .cls-20 {
        fill: #6f3215;
      }

      .cls-21 {
        fill: #288e44;
      }

      .cls-22 {
        fill: #2a9a47;
      }

      .cls-23 {
        fill: #ac4725;
        stroke: #ac4725;
      }

      .cls-23, .cls-18, .cls-24, .cls-13, .cls-12, .cls-14, .cls-15, .cls-16, .cls-17 {
        stroke-miterlimit: 10;
      }

      .cls-23, .cls-24, .cls-11 {
        stroke-width: 2px;
      }

      .cls-7 {
        stroke-width: 8px;
      }

      .cls-25 {
        fill: #0093bb;
      }

      .cls-26 {
        fill: #582e0f;
      }

      .cls-8 {
        stroke-width: 1.11px;
      }

      .cls-8, .cls-9, .cls-24 {
        fill: #fff;
        stroke: #fff;
      }

      .cls-18 {
        stroke-width: 8.24px;
      }

      .cls-18, .cls-10 {
        stroke: #192815;
      }

      .cls-9 {
        stroke-width: 1.01px;
      }

      .cls-27 {
        fill: #692b12;
      }

      .cls-28 {
        fill: #9fd3da;
      }

      .cls-29 {
        fill: #6c4119;
      }

      .cls-10 {
        fill: #192815;
        stroke-width: .75px;
      }

      .cls-13 {
        stroke-width: .5px;
      }

      .cls-30 {
        fill: #3b2811;
      }

      .cls-31 {
        fill: #d29832;
      }

      .cls-32 {
        fill: #a36928;
      }

      .cls-33 {
        fill: #e4ac49;
      }

      .cls-34 {
        fill: #a93f24;
      }

      .cls-35 {
        fill: #2a9044;
      }

      .cls-16 {
        stroke-width: 1.03px;
      }

      .cls-36 {
        fill: #744b1e;
      }
    </style>
  </defs>
  <g>
    <path class="cls-25" d="M163.48,750.68c0,10.76.26,21.46.76,32.09.01.17.02.34.03.51.03.58.06,1.17.09,1.75.32,6.38.74,12.73,1.25,19.05.67,8.5,1.51,16.95,2.51,25.35,3.46,29.16,8.81,57.69,15.93,85.45,5.93,23.12,13.08,45.71,21.36,67.68,4.1,10.85,8.47,21.54,13.12,32.08h0c.69,1.57,1.38,3.13,2.09,4.69,2.21,4.92,4.48,9.81,6.82,14.66h354.35c.05.29.09.57.14.85l-.12-.85h165.75s.02.34.02.34c-.01-.11-.01-.22-.01-.34h527.69c26.08-54.21,44.9-113,55.12-174.93,5.81-35.2,8.84-71.41,8.84-108.38,0-109.77-26.71-212.92-73.62-302.53-2.06-3.97-4.17-7.9-6.34-11.81h0c-3.74-6.83-7.61-13.55-11.61-20.2-2.4-4.03-4.86-8.03-7.36-11.99h0c-11.74-18.64-24.4-36.54-37.92-53.68-.23-.3-.47-.6-.71-.9-10.32-13.04-21.13-25.63-32.42-37.73-.11-.13-.24-.27-.37-.4-12.57-13.46-25.71-26.32-39.39-38.52-102.21-91.23-234.13-146.19-378.13-146.19-318.65,0-578.09,269.09-587.6,604.86-.18,6.34-.27,12.7-.27,19.09Z"/>
    <path class="cls-19" d="M146.69,749.37c0,1.43,0,2.87,0,4.3.07,11.57.43,23.09,1.08,34.56-.01.03,0,.07,0,.1.05,1.02.11,2.05.18,3.07.66,10.98,1.59,21.92,2.78,32.8,1.85,17.04,4.35,33.94,7.48,50.7,6.31,33.81,15.21,67.01,26.67,99.44.28.81.57,1.61.86,2.43h0c2.69,7.52,5.51,14.98,8.47,22.41,4.52,11.34,9.33,22.51,14.43,33.5h37.69c-7.68-15.41-14.75-31.21-21.2-47.38-4.01-10.06-7.75-20.21-11.23-30.43-15.53-45.69-25.72-92.95-30.49-141.31-.48-4.82-.9-9.65-1.27-14.49-.39-5.11-.72-10.22-.98-15.35-.06-.97-.1-1.94-.15-2.91-.01-.15-.02-.31-.02-.46-.49-10.28-.73-20.61-.73-30.98,0-10.17.23-20.3.7-30.39h0c3.28-71.1,18.1-140.11,44.17-205.54,28.77-72.17,69.95-137,122.4-192.67,52.45-55.67,113.52-99.37,181.53-129.9,70.39-31.6,145.18-47.63,222.28-47.63s151.89,16.03,222.28,47.63c52.2,23.43,100.31,54.62,143.56,93.03,13.11,11.63,25.77,23.92,37.97,36.87.38.41.76.81,1.14,1.22,1.01,1.07,2.01,2.14,2.98,3.22,10.63,11.49,20.77,23.37,30.42,35.61,1.1,1.38,2.18,2.77,3.26,4.16,14.2,18.32,27.32,37.45,39.33,57.33,5.77,9.52,11.27,19.21,16.51,29.07,10.66,20.01,20.25,40.71,28.76,62.06,29.77,74.72,44.87,154.1,44.87,235.93,0,37.71-3.21,74.9-9.58,111.35-7.45,42.65-19.24,84.29-35.29,124.58-6.45,16.17-13.52,31.97-21.2,47.38h37.69c5.1-10.99,9.91-22.16,14.43-33.5,18.77-47.1,32.04-95.95,39.7-146.04,5.21-34.07,7.83-68.7,7.83-103.77,0-86.63-15.99-170.68-47.53-249.81-8.31-20.86-17.6-41.14-27.86-60.79-1.18-2.28-2.38-4.56-3.6-6.82-26.66-49.72-59.5-95.4-98.11-136.38-11.58-12.28-23.55-24.02-35.91-35.19-46.9-42.43-99.29-76.75-156.28-102.34-74.56-33.47-153.75-50.44-235.37-50.44s-160.81,16.97-235.37,50.44c-72,32.33-136.66,78.6-192.19,137.53-55.52,58.93-99.12,127.57-129.57,203.99-31.54,79.13-47.53,163.18-47.53,249.81Z"/>
    <path class="cls-28" d="M483.77,497.24h-190.45s2.19-10.9,11.84-11.52,11.63-25.3,35-25.06c0,0,12.68.74,18.96,5.18,0,0-9.53-45.58,31.72-45.27,41.25.3,32.8,39.07,32.8,39.07,0,0,35.81-3.5,35.81,19.92,0,0,25-1.43,24.32,17.68Z"/>
    <path class="cls-4" d="M1128.22,1002.95c.23.62,7.63,20.64,7.54,29.73h120.32c1.95-7.01,16.5-59.81,13.8-69.3l-32.7,51.1c.23-1.25,10.63-56.18,2.63-65.9,0,0-12.29,34.12-15.98,51.75,0,0-10.04-67.94-31.44-80.66,0,0,13.3,51.72,9.25,78.19,0,0-19.32-41.76-39.72-47.54,0,0,16.25,21.39,18.44,76.32,0,0-21.28-47.31-40.19-63.26,0,0,18.11,48.23,18.11,65.58l-30.06-26.01Z"/>
  </g>
  <g>
    <path class="cls-16" d="M1346.33,1320.3l26.6.11c18.4,0,33.45-15.05,33.45-33.45v-225.92c0-15.51-12.69-28.2-28.2-28.2H124.51c-15.51,0-28.2,12.69-28.2,28.2v225.12c0,18.84,15.41,34.25,34.25,34.25h31.88s17.36,1.68,17.36,17.69v103.81c0,20.15,16.49,36.64,36.64,36.64h1073.27c20.15,0,36.64-16.49,36.64-36.64v-102.7s.48-18.99,19.99-18.91Z"/>
    <g>
      <path class="cls-35" d="M288.29,1121.47c0,9.21-2.5,17.36-7.5,24.44-5,7.08-12.23,13.19-21.67,18.33,26.12,8.5,39.18,26.83,39.18,54.99,0,6.55-.74,12.75-2.22,18.59-5.19,20.54-16.95,34.36-35.29,41.44-8.34,3.19-19.73,4.78-34.18,4.78h-78.08v-10.63l1.67,2.66,2.78-5.58c1.48-4.78,2.22-12.75,2.22-23.91v-137.6c0-12.04-.74-20.1-2.22-24.17l-4.45-7.97v-5.31h67.25c23.15,0,41.03,4.3,53.63,12.88,12.6,8.59,18.9,20.94,18.9,37.06ZM231.61,1109.92c-3.71-4.52-8.34-6.77-13.89-6.77h-3.06l-5,1.59v47.81h7.78c5.56,0,10.28-2.12,14.17-6.38,3.7-4.96,5.56-11.24,5.56-18.86,0-7.08-1.85-12.88-5.56-17.4ZM209.66,1251.9l6.67,1.06h4.72c8.71,0,15.56-3.1,20.56-9.3,5.37-7.08,8.06-15.41,8.06-24.97s-2.22-18.24-6.67-24.97c-5.19-8.14-12.69-12.22-22.51-12.22l-7.5,1.06-3.33.53v68.8Z"/>
      <path class="cls-35" d="M381.66,1108.77v137.77c0,10.64.92,18.62,2.78,23.94,1.29,4.08,3.98,8.6,8.06,13.56h-75.86c4.07-4.96,6.85-9.48,8.34-13.56,1.85-5.32,2.78-13.29,2.78-23.94v-137.77c0-17.91-3.71-30.41-11.12-37.5h75.86c-3.71,3.73-6.44,8.25-8.2,13.56-1.76,5.32-2.64,13.3-2.64,23.94Z"/>
      <path class="cls-35" d="M513.09,1103.68c-18.34,0-31.96,7.62-40.85,22.84-7.04,12.22-10.56,27.8-10.56,46.75,0,23.02,4.54,41.53,13.62,55.52,10,15.59,22.23,22.84,36.68,21.78l6.39-.53,5-1.06v-39.58c0-11.69-.7-19.61-2.08-23.77-1.39-4.16-4.31-8.1-8.75-11.82h57.52v100.68l-28.07,7.17-25.29,2.39c-32.61,0-58.73-10.09-78.36-30.28-19.08-19.48-28.62-44.98-28.62-76.5s9.68-57.29,29.04-76.77c19.36-19.48,42.19-29.22,68.5-29.22,2.59,0,5.18.09,7.78.27l20.01,1.59,18.34,3.98,3.06,40.91-23.62-10.89-19.73-3.45Z"/>
      <path class="cls-35" d="M818.2,1110.39l-16.39-3.26-6.67.53-5,.53v138.34c0,10.64.92,18.62,2.78,23.94l8.34,13.57h-75.86c4.63-5.85,7.5-10.37,8.61-13.57,1.48-4.25,2.22-12.24,2.22-23.94v-138.34l-9.73-1.06-18.9,3.26-19.73,8.96,11.12-48.08h140.88l-10,48.08-11.67-8.96Z"/>
      <path class="cls-35" d="M922.96,1108.77v137.77c0,10.64.92,18.62,2.78,23.94,1.29,4.08,3.98,8.6,8.06,13.56h-75.86c4.07-4.96,6.85-9.48,8.34-13.56,1.85-5.32,2.78-13.29,2.78-23.94v-137.77c0-17.91-3.71-30.41-11.12-37.5h75.86c-3.71,3.73-6.44,8.25-8.2,13.56-1.76,5.32-2.64,13.3-2.64,23.94Z"/>
      <path class="cls-35" d="M1165.26,1098.13l13.34,142.03c0,15.96,4.35,29.34,13.06,40.16h-69.75l6.11-12.75,1.39-14.88v-7.97l-9.17-96.43-37.51,135.74c-10.38-3.54-18.67-8.81-24.87-15.81-6.21-6.99-11.63-17.4-16.26-31.21l-30.84-90.3-9.73,107.84,2.22,13.54,8.06,12.22h-53.35c3.52-3.37,6.57-8.16,9.17-14.36,1.85-4.61,3.43-13.21,4.72-25.8l15.28-138.84-2.22-15.69-6.39-14.36h58.79l42.75,127.76,35.59-127.76h59.6c-3.71,4.26-6.39,8.6-8.06,13.03l-1.95,13.83Z"/>
      <path class="cls-35" d="M1329.76,1115.1l-12.23-9.16-15.28-3.33h-18.62v53.66h36.12v40.91c-1.48-3.54-4.26-6.24-8.34-8.1-4.08-1.86-8.06-2.79-11.95-2.79h-15.84v64.28l10.84,2.13h9.45l26.95-3.66c6.11-.69,13.24-4.61,21.4-11.75l-10.56,46.75h-124.21l8.89-13.56c1.85-5.32,2.78-13.29,2.78-23.94v-137.77c0-12.23-1.11-21.01-3.33-26.33-1.85-4.25-4.63-7.98-8.34-11.17h112.26v43.83Z"/>
    </g>
    <g>
      <path class="cls-21" d="M238.36,1425.84h34.05v20.06h-60.04v-106.7h25.99v86.64Z"/>
      <path class="cls-21" d="M351.29,1427.06h-39.82l-6.38,18.85h-27.21l38.61-106.7h30.1l38.61,106.7h-27.51l-6.38-18.85ZM344.6,1407l-13.22-39.06-13.07,39.06h26.3Z"/>
      <path class="cls-21" d="M543.72,1339.2l-27.82,106.7h-31.46l-17.02-70.22-17.63,70.22h-31.46l-27.06-106.7h27.82l15.35,77.67,19-77.67h28.58l18.24,77.67,15.5-77.67h27.97Z"/>
      <path class="cls-21" d="M652.25,1445.91h-25.99l-43.47-65.82v65.82h-25.99v-106.7h25.99l43.47,66.12v-66.12h25.99v106.7Z"/>
      <path class="cls-21" d="M784.94,1445.91l-9.88-9.58c-9.83,7.5-21.58,11.25-35.26,11.25-8.21,0-15.35-1.34-21.43-4.03-6.08-2.68-10.77-6.48-14.06-11.4-3.29-4.91-4.94-10.66-4.94-17.25s1.8-12.74,5.4-18.16c3.6-5.42,8.99-9.85,16.19-13.3-2.64-3.24-4.51-6.36-5.62-9.35-1.12-2.99-1.67-6.26-1.67-9.8,0-5.07,1.32-9.68,3.95-13.83,2.63-4.15,6.46-7.42,11.48-9.8,5.02-2.38,10.97-3.57,17.86-3.57s12.92,1.27,17.78,3.8c4.86,2.53,8.51,5.93,10.94,10.18,2.43,4.26,3.55,8.92,3.34,13.98h-24.47c.1-2.74-.58-4.84-2.05-6.31-1.47-1.47-3.42-2.2-5.85-2.2s-4.46.71-6.08,2.13c-1.62,1.42-2.43,3.24-2.43,5.47s.68,4.36,2.05,6.69c1.37,2.33,3.52,5.02,6.46,8.06l25.99,25.38c.2-.51.48-1.11.84-1.82.35-.71.73-1.52,1.14-2.43l5.62-9.58h25.99l-7.3,13.22c-2.74,5.98-5.88,11.65-9.42,17.02l25.69,25.23h-30.25ZM759.1,1420.83l-23.71-22.95c-7.3,3.75-10.94,8.82-10.94,15.2,0,3.85,1.49,7.07,4.48,9.65,2.99,2.58,7.02,3.88,12.08,3.88,6.79,0,12.82-1.92,18.09-5.78Z"/>
      <path class="cls-21" d="M949.25,1339.2v106.7h-25.99v-43.93h-40.43v43.93h-25.99v-106.7h25.99v41.8h40.43v-41.8h25.99Z"/>
      <path class="cls-21" d="M990.82,1439.98c-8.36-4.66-15-11.17-19.91-19.53-4.92-8.36-7.37-17.76-7.37-28.2s2.46-19.81,7.37-28.12c4.91-8.31,11.55-14.79,19.91-19.46,8.36-4.66,17.56-6.99,27.59-6.99s19.23,2.33,27.59,6.99c8.36,4.66,14.95,11.15,19.76,19.46,4.81,8.31,7.22,17.68,7.22,28.12s-2.43,19.84-7.3,28.2c-4.86,8.36-11.45,14.87-19.76,19.53-8.31,4.66-17.48,6.99-27.51,6.99s-19.23-2.33-27.59-6.99ZM1038.85,1414.75c5.12-5.67,7.68-13.17,7.68-22.5s-2.56-16.95-7.68-22.57c-5.12-5.62-11.93-8.44-20.44-8.44s-15.48,2.79-20.6,8.36c-5.12,5.57-7.68,13.12-7.68,22.65s2.56,16.95,7.68,22.57c5.12,5.62,11.98,8.44,20.6,8.44s15.33-2.83,20.44-8.51Z"/>
      <path class="cls-21" d="M1208.26,1339.2v106.7h-25.99v-63.99l-23.86,63.99h-20.98l-24.02-64.14v64.14h-25.99v-106.7h30.7l29.94,73.87,29.64-73.87h30.55Z"/>
      <path class="cls-21" d="M1252.94,1360.03v21.58h34.81v20.06h-34.81v23.41h39.37v20.82h-65.36v-106.7h65.36v20.82h-39.37Z"/>
    </g>
  </g>
  <g>
    <path class="cls-26" d="M581.94,1033.6c0,.05,0,.09.02.14v-.06l-.02-.08Z"/>
    <polygon class="cls-27" points="1155.81 636.34 1155.81 670.37 1134.87 718.73 1134.87 786.1 1160.21 845.3 1152.69 867.96 1110.07 856.05 1091.6 815.46 1084.86 756.64 1094.64 697.26 1114.94 640.55 1155.81 636.34"/>
    <polygon class="cls-29" points="736.32 57.2 822.86 77.13 867.46 125.14 891.36 150.77 860.26 165.23 917.32 194.31 915.3 143.68 896.63 89.96 866.2 53.09 806.84 31.47 744.6 43.25 736.32 57.2"/>
    <polygon class="cls-29" points="408.26 172.57 447.75 121.06 534.46 101.11 598.31 151.61 621.74 184.55 667.19 149.91 700.39 140.74 650.99 88.25 584.08 49.58 511.91 37.31 443.9 57.18 408.26 105.33 408.26 172.57"/>
    <path class="cls-36" d="M749.64,53.09s145.58-70.37,160.51,131.45l9.02,16.38,14.29-15.92,2.31-56.67-20.48-51.21-25.01-20.05-52.86-33.42-59.14,3.95-28.65,25.48Z"/>
    <path class="cls-30" d="M744.48,53.85s83.67-14.21,138.04,80.55l-45.09-21.41v-17.65s-85.85-27.29-85.85-27.29l-15.26-3.19,8.16-11Z"/>
    <path class="cls-36" d="M463.25,52.63s149.25-35.59,223.93,90.51l25.15-5.49-4.97-20.38-71.44-58.78-80.05-34.83-81.03,14.15-11.59,14.81Z"/>
    <path class="cls-30" d="M414.35,168.66s11.2-105.47,123.4-80.41c0,0,63.15,22.91,97.05,82.87l-31.68,39.77-29.33-56.18-56.36-33.65-58.45,25.72-33.97,51.28-10.66-29.4Z"/>
    <polygon class="cls-31" points="124.58 850.98 136.11 876.97 183.3 983.32 186.23 989.91 219.4 1034.75 412.52 1034.75 410.17 1028.5 347.59 950.74 347.58 950.73 339.96 941.26 271.63 855.55 271.54 855.45 265.73 848.17 260.11 844.23 260.05 844.18 219.38 815.59 217.96 814.59 189.61 794.66 189.45 794.55 160.04 801.14 143.5 804.84 131.71 807.48 128.63 826.27 124.58 850.98"/>
    <polygon class="cls-31" points="943.46 240.07 1015.85 248.02 1057.11 251.27 1035.83 295.67 997.32 323.52 961.64 323.52 947.93 339.8 945.58 363.75 953.75 384.65 996.8 424.86 991.04 451.27 998.29 500.89 936.97 518.14 934.04 552.53 924.97 589.62 924.97 637.88 904.38 687.1 879.3 714.19 861.83 736.58 841.14 761.52 727.38 617.96 608.73 542.57 546.01 434.53 546.01 346.74 486.23 328.98 447.75 302.2 418.62 265.96 432.24 199 505.16 197.21 566.17 216.24 591.14 237.53 672.51 147.7 721.69 139.85 767.57 100.24 835.29 101.11 824.81 128.34 873.79 131.55 891.36 150.77 853.86 167.16 910.16 184.55 930.13 235.08 943.46 240.07"/>
    <polygon class="cls-31" points="1243.04 443.95 1245.52 557.99 1221.73 672.55 1224.72 789.18 1281.75 835.9 1353.11 842.35 1372.77 813.14 1388.06 751.44 1379.16 623 1340.35 492.97 1304.9 392.17 1270.24 332.76 1217.82 294.04 1166.91 262.71 1121.26 274.12 1076.62 328.98 1073.45 371.13 1065.18 419.52 1114.64 447.31 1152.59 429.45 1215.61 454.86 1243.04 443.95"/>
    <path class="cls-32" d="M435.48,203.94s97.7,20.04,121.56,88.19l18.73,16.78,8.11,4.94s9.22,7.27-1.56,41.98c-10.78,34.71-10.12,165.84,90.82,203.56,0,0,4.87-12.04-4.27-34.95,0,0,95.71,131.02,119.89,145.34l9.82,6.85,8.24,22.25-10.31,7.56-47.94-36.32-28.39-39.67-49.2-17.86-79.13-46.21-60.46-85.11-4.42-52.83,7.35-33.37,21.73-47.76,19.71-12.06s-58.21-21-86.99-50.17c-28.78-29.17-49.4-22.56-57.56-8.95l-27.11-40.08-3.28-21.86,34.66-10.25Z"/>
    <g>
      <path class="cls-6" d="M603.11,210.89s-28.87-79.09-85.24-85.6c-56.37-6.5-84.55,54.2-85.64,73.71h-14.62s-55.12-106.76,57.22-161.18c112.34-54.43,214.91,63.5,240.03,94.9l2.9,4.37"/>
      <path class="cls-7" d="M645.13,72.56s-68.63-.75-77.25,71.12"/>
      <path class="cls-7" d="M566.17,30.23s-66.38,17.44-55.68,89.03"/>
      <path class="cls-7" d="M461.98,42.24s-36.95,49.32,8.23,92.03"/>
    </g>
    <g>
      <path class="cls-7" d="M860.26,39.87c-42.47,4.82-60.13,37.27-60.13,37.27"/>
      <path class="cls-6" d="M929.53,199.87c31.96-99.87-52.47-176.54-120.86-176.2s-79.43,48.89-79.43,48.89c77.28-14.02,123.88,52.78,123.88,52.78"/>
      <path class="cls-7" d="M841.22,101.11s28.35-23.68,69.62-12.56"/>
      <path class="cls-7" d="M859.78,128.34s40.76-.12,73.69,36.89"/>
    </g>
    <path class="cls-32" d="M1066.48,349.09s9,22.89,44,14.13v29.94s-25.4-5.86-25.4-5.86l-22.1-19.78-2.39-18.43h5.89Z"/>
    <path class="cls-32" d="M1174.7,354.9s-36.53,34.5-53.45,39.91l31.33,34.63s10.48-64.58,22.12-74.55Z"/>
    <path class="cls-32" d="M1211.36,421.34s-58.99,12.34-36.66-61.73c0,0-26.04,45.84-14.88,70.29,11.16,24.45,61.91,9.56,61.91,9.56l-10.37-18.12Z"/>
    <path class="cls-32" d="M1221.73,404.71s38.17,20.81,48.51,19.83l-27.2,19.41-19.96-10.92-1.35-28.33Z"/>
    <path class="cls-32" d="M1063.07,399.89s40.59,44.31,78.48,32.13l2.71,11.93-48.71,12.76-34.95-21.65-4.96-23,7.44-12.17Z"/>
    <path class="cls-32" d="M1257.25,438.79s10.91,87.34,3.96,123.19c-6.94,35.86-53.58,162.45-.83,229.6,52.76,67.15,102.62,34.12,102.62,34.12,0,0-1.77,25.4-55.82,33.81-54.05,8.41-91.66,7.25-104.96-17.62-13.3-24.87-39.89-111.9-27.75-135.47,12.14-23.58,19.08-65.88,19.08-65.88l20.82-38.66s20.14-71.99,8.33-104.53c-11.8-32.54-12.21-44.42-12.21-44.42,0,0,33.77.1,46.76-14.15Z"/>
    <path class="cls-32" d="M947.93,496.85s31.62-8.87,38.49-19.94c0,0-5.69,35.71-19.24,48.68-13.56,12.97-33.14,2.35-33.14,2.35,0,0,14.82-19.9,13.89-31.09Z"/>
    <path class="cls-32" d="M897.46,434.53s53.33,24.59,79.03,4.68l-19.56,24.08-16.27,1.78-20.34-7.12-22.85-23.41Z"/>
    <path class="cls-32" d="M951.4,287.05s44.22,30.23,95.42-22.48l-10.99,31.11-31.63,21.35-42.56,6.49-13.83-4.75s4.58-20.98,3.59-31.72Z"/>
    <path class="cls-32" d="M672.51,160.48c-8.39,7.16-17.6,16.34-26.37,27.94-22.55,29.84-30.7,60.46-33.97,79.41l-13.81-18.55c-.3-8.51.17-29.08,13.23-49.6,20.38-32.02,55.1-38.26,60.92-39.2Z"/>
    <path class="cls-32" d="M804.27,688.78s38.54,42.42,70.82-2.19l-9.68,31.52c-2.53,7.29-6.71,16.63-13.78,26.21-3.51,4.76-7.12,8.73-10.48,12.01-11.29-17.58-22.59-35.16-33.88-52.73l-2.99-14.81Z"/>
    <path class="cls-32" d="M98.4,853.83l1.38,4.43,11.39,36.65,43.13,71.67,8.48,9.83,33.64,38.99h0s16.69,19.35,16.69,19.35h56.43c-12.27-10.42-47.34-41.22-77.74-77.81-11-13.24-21.39-27.23-29.86-41.3-11.18-18.54-19.03-37.2-20.57-54.39-1.21-13.52.7-23.61,4.64-31.06,3.65-6.91,9.04-11.55,15.3-14.56,13.05-6.28,29.9-5.5,42.71-3.44,6.49,1.05,11.95,2.43,15.36,3.4,2.24.63,3.6,1.08,3.78,1.14l-1.22-.81-32.33-21.26-.16-.11-13.32-8.76h-41.56s-.79.7-.79.7h-.01s-7.92,6.98-7.92,6.98l-19.55,17.23-7.45,40.66-.45,2.47Z"/>
    <path class="cls-33" d="M1065.89,397.91s-5.26,10.8,12.74,12.74,37.66,1.53,56.76,17.66l-12.28-21.08-16.81-10.69-29.61-11.35-10.8,12.74Z"/>
    <path class="cls-33" d="M1080.18,362.17s2.73-48,41.08-71.13c38.36-23.12,38.56-27.2,88.85,7.17,50.29,34.37,82.92,70.49,90.2,111.86,7.28,41.36,91.27,170.52,70.49,393.35l17.26-51.98,15.62-52.57-6.68-75.87-29.98-95.06-26.27-62.87-18.53-58.32-13.81-47.13-26.2-31.14-40.3-37.29-39.23-28.95-36.46-13.69-38.22,8.87-32.84,28.44-26.43,37.66-2.27,25.58s4.28,10.43,13.69,13.08Z"/>
    <path class="cls-33" d="M948.84,258.17s69.81,26.14,101.95,3v-14.16s-45.21,3.54-45.21,3.54l-55.01-3.54-1.73,11.17Z"/>
    <path class="cls-33" d="M892.31,227.46s34.22,12.62,36.18,56.37l12.06,16.55,8.3-8.41-2.88-32-15.83-24.89-19.97-10.04-17.85,2.41Z"/>
    <path class="cls-33" d="M832.87,173.89s47.94,6.17,73.89,42.35h16.46s-4.04-15.31-4.04-15.31l-22.55-21.74-32.09-9.5-31.67,4.21Z"/>
    <path class="cls-33" d="M786.85,141.36s67.67-5.54,91.19,13.35l9.97-10.58-14.22-12.57-29.18-6.41-36.17,5.83-21.6,10.38Z"/>
    <path class="cls-33" d="M725.43,146.78s30.77-51.23,112.01-33.8l-2.15-11.87-38.62-5.78-40.39,7.88-28.61,25.13-2.24,18.44Z"/>
    <path class="cls-33" d="M627.54,184.55s53.85-36.26,97.88-37.76l-25.04-6.04-51.49,19.32-21.36,24.48Z"/>
    <path class="cls-33" d="M443.9,206.03s95.43-12.25,169.08,66.44l-28.31-41.45-39.01-25.68-51.79-11.03-49.97,11.72Z"/>
    <path class="cls-33" d="M877.78,300.31s-20.85,40.75,47.31,86.06c68.16,45.31,56.93,60.94,56.93,60.94l10.17-12.24,4.6-10.21-34.42-34.08-39.16-27.83-22.58-24.7-14.83-20.53-8.02-17.41Z"/>
    <path class="cls-33" d="M986.42,452.29s5.87,33.04-16.49,70.22l13.74-7.83,15.82-27.28,3.79-30.88-10.92-9.21-5.94,4.97Z"/>
    <path class="cls-33" d="M928.4,542.57s-18.11,5.73-17.53,71.83c.59,66.1-22.67,88.77-22.67,88.77l31.5-51.44,3.53-48.35,3.83-40.33,1.34-20.47Z"/>
    <path class="cls-33" d="M204.02,812.19s81.27,55.4,130.16,155.84c0,0,24.09,44.09,53.87,66.72h20.02s-39.46-53.01-39.46-53.01l-.09-.14-20.93-30.86h0s-13.97-20.61-13.97-20.61l-6.54-9.65-40-49.78-15.44-15.15-.09-.1-11.43-11.22-.06-.05-21.42-21.03s-7.81-4.04-16.69-7.23c-1.31-.46-2.64-.91-3.98-1.33-5-1.56-10.03-2.64-13.94-2.4Z"/>
    <path class="cls-12" d="M212.18,1034.75c-3.9-4.07-8.53-9.01-13.67-14.66-10.26-11.29-22.51-25.44-34.87-41.24h0c-3.12-4-6.24-8.09-9.34-12.27-16.62-22.41-32.56-47.29-43.13-71.67-5.41-12.48-9.42-24.83-11.39-36.65-.39-2.32-.7-4.62-.93-6.9-1.47-14.82.57-28.65,7.45-40.66,1.79-3.14,3.91-6.15,6.38-9.02,0,0,0-.02.04-.05.01-.02.03-.04.05-.06,3.3-3.81,6.78-6.99,10.43-9.61.09-.07.18-.12.26-.18.73-.52,1.46-1.02,2.21-1.48,2.87-1.84,5.85-3.33,8.9-4.51,2.47-.96,4.99-1.71,7.56-2.26,5.39-1.18,11-1.52,16.76-1.11,10.23.71,20.93,3.73,31.8,8.47.04.01.09.03.13.05.07.03.15.07.23.1,9.75,4.28,19.63,9.92,29.39,16.49.13.09.27.18.42.28.16.11.32.22.48.34,52.72,35.78,101.87,98.14,110.04,117.25.64,1.49,1.38,3.07,2.23,4.73,1.73,3.39,3.88,7.13,6.35,11.13,7.44,12.04,17.83,26.37,28.56,40.34,16.93,22.08,34.73,43.28,43.13,53.15"/>
    <path class="cls-20" d="M1155.81,648.68c1.4-3.18,3.27-6.7,5.78-10.33,6.48-9.39,14.26-15.17,19.77-18.52l17.02,2.11-10.56,26.74h-32.02Z"/>
    <path class="cls-20" d="M1132.59,704.98h40.29s-1.5,68.05-1.5,68.05c0,0-29.23,4.46-42.4,5.27,0,0-2.31-54.41,3.61-73.32Z"/>
    <path class="cls-20" d="M1152.69,846.81l43.58-8.72,48.17,29.02,26.01,4.7-26.57,22.39-34.44,2.88s-32.23-7.7-56.75-50.27Z"/>
    <path class="cls-26" d="M1155.81,648.68s-18.59,26.21-23.22,56.29h40.29s14.95-56.29,14.95-56.29h-32.02Z"/>
    <path class="cls-26" d="M1128.98,778.3s6.54,44.87,23.72,68.51l43.58-8.72-24.89-65.06-42.4,5.27Z"/>
    <path class="cls-20" d="M1114.01,636.34l-19.37,32.65s-30.05-4.74-44.67-12.65c1.23-3,2.8-6.22,4.79-9.54,6.58-10.92,14.94-17.99,21.2-22.29,12.68,3.94,25.37,7.89,38.05,11.83Z"/>
    <path class="cls-20" d="M1033.36,704.98c5.68-1.19,13.75-2.21,23.31-1.27,12.56,1.24,22.22,5.32,28.08,8.37l-5.53,56.93s-29.11-4.03-40.65-13.09l-11.93-46.61,6.72-4.34Z"/>
    <path class="cls-20" d="M1040.69,815.46s50.13,16.35,55.19,16.05l23.3,40.3-18.95,3.49-64.56-18.28,5.01-41.56Z"/>
    <path class="cls-26" d="M1049.96,656.34s-16.39,42.71-16.6,48.64c0,0,16.54,1.06,23.75,4.34,7.21,3.27,27.64,2.77,27.64,2.77l9.89-43.09s-28.38-4.92-44.67-12.65Z"/>
    <path class="cls-26" d="M1079.22,769.01s-30.44-4.52-40.65-13.09l2.12,59.53s52.42,17.02,55.19,16.05l-16.67-62.5Z"/>
    <path class="cls-26" d="M982.51,734.63s5.46,18.27,6.65,48.89h-42.72c-3.09-12.76-5.73-26.3-7.71-40.58-.39-2.79-.74-5.56-1.07-8.3h44.85Z"/>
    <path class="cls-26" d="M989.15,846.41s-.95,46.75-2.61,57.19h-42.01c-.61-8.2-.84-17.46-.34-27.58.54-11.02,1.84-20.96,3.43-29.61h41.53Z"/>
    <path class="cls-26" d="M934.1,1034.75h37.73c.05-.14.1-.28.15-.45.52-1.71,1.1-4.59,1.71-8.21.04-.25.08-.5.12-.76.04-.27.09-.55.13-.83.05-.3.09-.6.14-.91.12-.77.23-1.56.35-2.38.07-.42.13-.85.18-1.28.04-.23.07-.46.1-.69.09-.64.18-1.3.27-1.97.1-.69.19-1.4.28-2.12.09-.68.18-1.37.27-2.07.3-2.38.61-4.84.9-7.35.21-1.81.42-3.63.63-5.46.02-.19.04-.39.07-.58.71-6.31,1.37-12.56,1.92-17.95,0-.11.02-.21.03-.32.04-.4.08-.8.12-1.19.08-.78.15-1.54.23-2.27.03-.37.07-.74.11-1.09.02-.19.04-.38.06-.57.01-.19.03-.37.05-.55.04-.48.09-.95.14-1.41.03-.34.07-.68.1-1.01.02-.22.04-.44.06-.65.04-.43.08-.84.12-1.23.04-.44.08-.86.12-1.26.02-.16.03-.32.05-.48.02-.22.04-.43.06-.64.05-.51.09-.97.13-1.38.01-.07.01-.13.02-.19.06-.6.1-1.06.12-1.35.02-.12.03-.21.03-.27.01-.07.01-.1.01-.1l-41.29,1.66c.07.48.07,1.55.03,3.08,0,.27-.02.55-.03.84-.01.2-.02.4-.03.61-.04.92-.1,1.96-.17,3.1-.03.4-.05.82-.08,1.25-.02.35-.05.71-.07,1.07-.04.66-.09,1.34-.14,2.05-.05.64-.09,1.29-.14,1.96-.05.67-.1,1.35-.15,2.05h0c-.09,1.23-.19,2.5-.29,3.8-.13,1.71-.27,3.47-.42,5.27h0c-.51,6.3-1.08,13.01-1.64,19.18-.08.88-.15,1.75-.23,2.61-.05.58-.1,1.14-.15,1.7-.04.4-.07.8-.11,1.2-.08.87-.16,1.73-.23,2.56h0c-.09,1.03-.18,2.02-.27,2.97-.13,1.43-.25,2.76-.36,3.99-.05.53-.1,1.04-.14,1.53-.12,1.21-.21,2.29-.3,3.2-.02.19-.03.36-.05.53-.16,1.76-.25,2.76-.25,2.76Z"/>
    <path class="cls-26" d="M868.65,735.31h13.59s5.99,35.41,7.28,48.21h-39.16s-5.66-14.88-5.66-14.88v-9.65s23.95-23.68,23.95-23.68Z"/>
    <path class="cls-26" d="M853.44,846.41h40.29s0,52.66,0,58h-42.1s1.8-58,1.8-58Z"/>
    <path class="cls-26" d="M855.38,969.62l37.38-.65c1.58,15.4,1.59,33.71-2.27,53.77-.8,4.17-1.73,8.17-2.74,12-11.21,0-22.42,0-33.64,0,.42-21.71.85-43.42,1.27-65.13Z"/>
    <path class="cls-20" d="M974.06,708.14s6.76,19.56,8.45,26.49h-44.85s-12.85-41.08-25.11-53.34l5.72-10.92,32.17,22.06,23.62,15.71Z"/>
    <polygon class="cls-20" points="989.15 783.52 989.15 846.41 947.62 846.41 946.43 783.52 989.15 783.52"/>
    <polygon class="cls-20" points="986.54 903.6 980.61 965.78 939.31 967.44 944.54 903.6 986.54 903.6"/>
    <polygon class="cls-20" points="892.76 968.97 855.38 969.62 851.63 904.41 893.73 904.41 892.76 968.97"/>
    <polygon class="cls-20" points="889.52 783.52 893.73 846.41 853.44 846.41 850.36 783.52 889.52 783.52"/>
    <polygon class="cls-20" points="882.24 735.31 878.23 718.73 867.11 731.43 868.65 735.31 882.24 735.31"/>
    <path class="cls-34" d="M1155.81,648.68s-32.71-.93-45.73,7.65l12.34-19.99,19.7-16.51h34.98s4.26,0,4.26,0c0,0-18.19,13.63-25.55,28.85Z"/>
    <path class="cls-34" d="M1132.59,704.98s-5.59,20.2-3.61,73.32h-40.37v-42.28s5.13-18.72,5.13-18.72c0,0,2.37-10.82,38.85-12.32Z"/>
    <path class="cls-34" d="M1152.69,846.81s18.65,35.21,51.5,48.47l-6.94,7.99-63.32-23.58-16.57-23.53-3.12-4.68s19.4,1.15,38.45-4.66Z"/>
    <path class="cls-34" d="M1049.96,656.34s6.76-18.18,27.67-31.23l-48.47-17.09s-14.88,6.49-22.72,20.26l2.81,5.17s22.3,15.66,40.72,22.89Z"/>
    <path class="cls-27" d="M1049.96,656.34c-5.88,17.42-11.77,34.84-17.65,52.25-4-10.32-8-20.64-11.99-30.97l-9.99-38.15-1.07-6.03c5.82,3.97,12.26,8.03,19.34,12.03,7.48,4.22,14.65,7.81,21.37,10.86Z"/>
    <path class="cls-27" d="M1026.29,609.49s-13.91,8.5-19.84,18.79l-15.48-25.91,35.33,7.12Z"/>
    <path class="cls-26" d="M976.1,672.76s25.56-3.12,42.37,14.62l-8.15-47.91-3.88-11.2-14.41-24.11-12.14-1.79h-13.7s-.3,5.65-.3,5.65l10.2,64.74Z"/>
    <path class="cls-34" d="M1018.47,687.39c-14.89-17.59-42.37-14.62-42.37-14.62l-.23,40.69s6.26,18.85,6.64,21.17h40.98s-5.02-47.24-5.02-47.24Z"/>
    <polygon class="cls-34" points="989.15 783.52 1024.49 783.52 1023.49 846.41 989.15 846.41 989.15 783.52"/>
    <polygon class="cls-34" points="986.54 903.6 980.61 965.78 1007.7 965.78 1017.27 903.6 986.54 903.6"/>
    <path class="cls-27" d="M982.51,734.63s5.69,22.46,6.65,48.89h35.34s-2.48-48.89-2.48-48.89h-39.5Z"/>
    <path class="cls-27" d="M989.15,846.41s-1,47.95-2.61,57.19h30.72s6.22-57.19,6.22-57.19h-34.34Z"/>
    <path class="cls-27" d="M971.83,1034.75h19.14s.02-.07.05-.2c0-.05.03-.12.05-.19l8.33-35.72,6.93-29.69,1.37-3.17h-27.09s0,.03-.01.1c0,.06-.01.15-.03.27-.02.29-.06.75-.12,1.35-.01.06-.01.12-.02.19-.04.41-.08.87-.13,1.38-.02.21-.04.42-.06.64-.02.16-.03.32-.05.48-.04.4-.08.82-.12,1.26-.04.39-.08.8-.12,1.23-.02.21-.04.43-.06.65-.03.33-.07.67-.1,1.01-.05.46-.1.93-.14,1.41-.02.18-.04.36-.05.55-.02.19-.04.38-.06.57-.04.35-.08.72-.11,1.09-.08.73-.15,1.49-.23,2.27-.04.39-.08.79-.12,1.19-.01.11-.03.21-.03.32-.55,5.39-1.21,11.64-1.92,17.95-.03.19-.05.39-.07.58-.21,1.83-.42,3.65-.63,5.46-.29,2.51-.6,4.97-.9,7.35-.09.7-.18,1.39-.27,2.07-.09.72-.18,1.43-.28,2.12-.09.67-.18,1.33-.27,1.97-.03.23-.06.46-.1.69-.05.43-.11.86-.18,1.28-.12.82-.23,1.61-.35,2.38-.05.31-.09.61-.14.91-.04.28-.09.56-.13.83-.04.26-.08.51-.12.76-.6,3.73-1.19,6.63-1.71,8.21-.05.17-.1.31-.15.45Z"/>
    <path class="cls-34" d="M912.55,681.29s13.56,12.91,25.11,53.34l-55.41.68-4.01-16.58,18.33-17.37,15.99-20.07Z"/>
    <polygon class="cls-34" points="946.43 783.52 947.62 846.41 893.73 846.41 889.52 783.52 946.43 783.52"/>
    <polygon class="cls-34" points="944.54 903.6 939.31 967.44 892.76 968.97 893.73 904.41 944.54 903.6"/>
    <path class="cls-27" d="M937.65,734.63s6.22,13.82,8.78,48.89h-56.91s-7.28-48.21-7.28-48.21l55.41-.68Z"/>
    <polygon class="cls-27" points="947.62 846.41 944.54 903.6 893.73 904.41 893.73 846.41 947.62 846.41"/>
    <path class="cls-27" d="M887.75,1034.75h46.35s.09-1,.25-2.76c.02-.17.03-.34.05-.53.09-.91.18-1.99.3-3.2.04-.49.09-1,.14-1.53.11-1.23.23-2.56.36-3.99.09-.95.18-1.94.27-2.96h0c.07-.84.15-1.7.23-2.57.04-.4.07-.8.11-1.2.05-.56.1-1.12.15-1.7.08-.86.15-1.73.23-2.61.54-6.18,1.11-12.89,1.64-19.17h0c.14-1.81.29-3.57.42-5.28.1-1.3.2-2.57.29-3.79h0c.05-.71.1-1.39.15-2.06.05-.67.09-1.32.14-1.96.05-.71.1-1.39.14-2.05.02-.36.05-.72.07-1.07.03-.43.05-.85.08-1.25.07-1.14.13-2.18.17-3.1.01-.21.02-.41.03-.61.01-.29.03-.57.03-.84.07-1.73.07-2.82-.03-3.08l-46.56,1.53s0,.05-.01.15c0,.06,0,.15-.01.25,0,.06-.01.12-.01.19,0,.1-.01.2-.02.32,0,.09,0,.2-.02.31,0,.1,0,.21-.01.33,0,.09-.01.17-.01.26-.02.45-.05.98-.08,1.57,0,.03,0,.07,0,.1-.02.41-.04.86-.07,1.33-.03.72-.07,1.5-.12,2.34-.85,16.54-3.07,56.23-4.64,58.63Z"/>
    <polygon class="cls-34" points="965.9 664.64 923.95 664.64 947.53 686.59 967.08 695.71 972.1 678.4 965.9 664.64"/>
    <polygon class="cls-34" points="963.4 628.28 926.26 628.28 925.17 593.67 952.83 593.67 963.4 628.28"/>
    <polygon class="cls-27" points="946.43 593.67 925.17 593.67 928.4 580.79 946.43 593.67"/>
    <polygon class="cls-27" points="931.72 628.28 963.4 628.28 965.9 664.64 923.95 664.64 919.71 651.72 931.72 628.28"/>
    <path class="cls-13" d="M766.24,718.73s17.93,27.86,22.19,184.45v.14c.55,19.94.86,41.97.89,66.3.03,19.88-.13,41.28-.53,64.33,0,.26-.01.53-.01.8"/>
    <path class="cls-13" d="M671.14,671.02h.01c.77.08,34.04,3.88,41.7,97.99,3.05,37.47,5.67,87.04,7.71,133.38.03.55.05,1.1.08,1.65v.08c1.02,22.96,1.89,45.08,2.6,64.48l.04,1.02.06,1.85c1.06,28.89,1.76,51.38,2.05,61l.02.74.04,1.31c0,.08,0,.16,0,.23"/>
    <path class="cls-13" d="M639.68,712.11s11.65,45.56,20.59,190.07v.13c1.27,20.41,2.48,42.8,3.59,67.31.58,12.76,1.14,26.11,1.65,40.05l.02.4v.28s.05,1.1.05,1.1c.29,7.59.56,15.36.83,23.3"/>
    <path class="cls-13" d="M535.4,637.7s7.32,2.19,17.94,30.47c12.14,32.29,28.59,98.58,43.41,234.46,2.26,20.67,4.48,42.96,6.64,66.99,1.84,20.43,3.63,42.11,5.37,65.13"/>
    <path class="cls-13" d="M559.68,1034.75c-1.87-11.8-4.96-31.83-9.03-60.55-.03-.25-.07-.48-.1-.71-.04-.25-.07-.51-.11-.77-.02-.14-.04-.26-.06-.39-.01-.08-.02-.16-.03-.23-.02-.15-.04-.29-.06-.42-.02-.2-.05-.39-.08-.57l-.06-.42v-.09s-.02-.07-.02-.07c-.02-.13-.04-.25-.05-.36-.01-.05-.02-.09-.02-.14l-.06-.41c-2.59-18.38-5.55-40.11-8.84-65.3l-.06-.45c-4.23-32.44-9-70.6-14.19-114.7-20.86-177.23-87.58-219.53-87.58-219.53"/>
    <path class="cls-13" d="M515.53,1034.75c-2.98-12.51-8.19-36.11-14.22-63.92l-.12-.55c-.05-.22-.1-.44-.14-.66-.15-.66-.29-1.32-.43-1.98l-1.16-5.35c-3.69-17.07-7.62-35.4-11.49-53.52l-.49-2.3c-12.84-60.19-24.84-117.3-24.84-117.3"/>
    <path class="cls-13" d="M341.49,623s109.91,86.92,97.83,213.43"/>
    <path class="cls-13" d="M277.45,666.58s22.76-15.41,51.38,24.59c28.63,40.01,94.69,107.35,59.09,189.75"/>
    <path class="cls-13" d="M137.36,736.49s46.14-26.31,127.6,41.36c81.46,67.67,60.29,136.57,60.29,136.57"/>
    <path class="cls-13" d="M406.13,617.45s55.5-30.1,111.51-27.83"/>
    <path class="cls-13" d="M437.79,663.66s43.58-18.05,108.98-18.63"/>
    <path class="cls-13" d="M458,718.73s88.99-18.42,299.54-6.62"/>
    <path class="cls-13" d="M842.99,777.44s-291.64-11.75-384.99,4.82"/>
    <path class="cls-13" d="M847.28,843.56s-355.11-18.08-424.31,13.01"/>
    <path class="cls-13" d="M851.63,904.41s-368.25-9.28-420.27,10.01"/>
    <polyline class="cls-13" points="445.83 969.62 448.47 969.62 453.62 969.62 501.04 969.62 501.05 969.62 550 969.62 603.39 969.62 663.86 969.62 723.28 969.62 789.32 969.62 845.6 969.62 847.29 969.62"/>
    <path class="cls-13" d="M410.17,622.08s-98.24,44.08-140.19,100.48"/>
    <path class="cls-13" d="M444.76,678.43s-114.44,51.92-125.73,90.07"/>
    <path class="cls-13" d="M460.46,744.45s-92.47,40.4-109.48,64.18"/>
    <path class="cls-13" d="M452.07,805.2s-68.7,34.28-81.49,58.21"/>
    <line class="cls-13" x1="248.44" y1="825.61" x2="312.9" y2="761.52"/>
    <line class="cls-13" x1="347.58" y1="816.37" x2="282.55" y2="863.4"/>
    <line class="cls-13" x1="370.84" y1="870.16" x2="321.16" y2="908.3"/>
    <path class="cls-13" d="M259.62,718.73s-70.37,69.55-70.18,75.82"/>
    <path class="cls-13" d="M224.53,704.33s-80.12,53.72-81.14,75.48"/>
    <polygon class="cls-34" points="746.03 671.02 749.2 703.94 762.13 712.43 800.56 714.84 775.49 691.41 746.03 671.02"/>
    <path class="cls-34" d="M837,777.21l-57.55-1.81s4.79,38.94,6.24,65.65l57.3,2.3-5.99-66.15Z"/>
    <polygon class="cls-34" points="845.59 904.27 788.42 903.18 789.32 969.62 845.59 969.62 845.59 904.27"/>
    <path class="cls-27" d="M766.24,718.73s7.98,14.21,13.21,56.67l57.55,1.81-5.53-27.89-30.91-34.47-29.54-1.95-4.78,5.84Z"/>
    <path class="cls-27" d="M842.99,843.36l-57.3-2.3c-.45,8.04-.63,16.69-.38,25.86.36,13.23,1.53,25.38,3.11,36.27l57.17,1.08-2.6-60.91Z"/>
    <polygon class="cls-27" points="789.32 969.62 845.59 969.62 842.46 1034.75 788.79 1033.95 789.32 969.62"/>
    <path class="cls-20" d="M746.03,671.02c-4.6-5.84-9.19-11.69-13.79-17.53-7.93-.84-16.48-1.43-25.57-1.62-14.23-.29-27.27.46-38.88,1.74,1.39,5.85,2.78,11.7,4.17,17.55,0,0,17.29,2.17,29.79,38.39l46.81,1.92,1.59-13.49c-1.37-8.99-2.75-17.98-4.12-26.96Z"/>
    <path class="cls-20" d="M779.45,775.4s6.73,52.81,6.24,65.65l-68.23-1.87-4.22-65.19,66.2,1.41Z"/>
    <polygon class="cls-20" points="788.42 903.18 720.56 902.39 723.27 969.62 789.32 969.62 788.42 903.18"/>
    <path class="cls-26" d="M713.24,773.99c-1.44-9.55-3.02-19.29-4.76-29.2-2.12-12.06-4.37-23.81-6.73-35.24,29.16.93,39.99,1.49,44.11,1.84.91.08,5.86.51,12.54.86,1.65.09,2.98.15,3.74.18,1.93,2.8,4.18,5.65,5.56,9.11,3.3,8.29,7.62,24.03,11.76,53.85l-66.2-1.41Z"/>
    <polygon class="cls-26" points="785.69 841.05 788.42 903.18 720.56 902.39 717.46 839.18 785.69 841.05"/>
    <path class="cls-26" d="M723.28,969.62l.06,1.85,1.99,59.05.03,1.01.03.94.02.74.04,1.31v.23s.02.34.02.34c-.01-.11-.01-.22-.01-.34h36.68s26.65-.8,26.65-.8l.53-64.33h-66.04Z"/>
    <path class="cls-34" d="M701.75,709.56s-10.65-34.06-30.61-38.54l-26.83,26.38-4.64,10.81,62.08,1.34Z"/>
    <polygon class="cls-34" points="713.25 773.99 717.46 839.18 655.67 838.34 649.22 773.39 713.25 773.99"/>
    <polygon class="cls-34" points="720.56 902.39 723.27 969.62 663.86 969.62 660.26 902.18 720.56 902.39"/>
    <path class="cls-27" d="M701.75,709.56c2.05,5.78,3.98,12.07,5.65,18.83,4.21,17.03,5.66,32.56,5.85,45.61l-64.03-.6s-6.7-54.98-9.55-61.28v-3.89s62.08,1.34,62.08,1.34Z"/>
    <polygon class="cls-27" points="717.46 839.18 720.56 902.39 660.26 902.18 655.67 838.34 717.46 839.18"/>
    <polygon class="cls-27" points="663.86 969.62 665.51 1009.67 665.53 1010.07 665.54 1010.35 665.58 1011.45 666.54 1034.75 725.45 1034.75 725.45 1034.52 725.41 1033.21 725.39 1032.47 725.36 1031.53 725.33 1030.52 723.34 971.47 723.28 969.62 663.86 969.62"/>
    <path class="cls-26" d="M639.67,712.11s5.76,23.13,9.55,61.28l-70.09.58s-10.05-52.01-13.41-64.8l25.28-.96,48.67,3.89Z"/>
    <polygon class="cls-26" points="655.67 838.34 660.26 902.18 596.75 902.63 589.07 839.12 655.67 838.34"/>
    <polygon class="cls-26" points="603.39 969.62 608.75 1034.75 666.54 1034.75 665.58 1011.45 665.54 1010.35 665.53 1010.07 665.51 1009.67 663.86 969.62 603.39 969.62"/>
    <path class="cls-20" d="M565.72,709.17s-10.63-39.04-12.9-43.07l38.18,42.11-25.28.96Z"/>
    <polygon class="cls-20" points="649.22 773.39 655.67 838.34 589.07 839.12 579.13 773.97 649.22 773.39"/>
    <polygon class="cls-20" points="660.26 902.18 663.86 969.62 603.38 969.62 596.75 902.63 660.26 902.18"/>
    <path class="cls-34" d="M440.8,570.69s10.5,7.43,23.27,25.08c0,0,24-6.75,48.09-6.27l-10.98-37.06-60.37,18.25Z"/>
    <path class="cls-34" d="M493.3,649.49c4.9-.87,10.02-1.65,15.34-2.3,11.58-1.42,22.46-2.05,32.49-2.15l14.29,28.3c1.82,5.44,3.6,11.11,5.32,17.02,1.87,6.47,3.53,12.76,4.99,18.82-6.45.24-12.96.55-19.54.87-10.88.54-23.97,1.27-32.82,2.06,0,0-13.99-52.27-20.05-62.62Z"/>
    <path class="cls-34" d="M579.13,773.97l9.93,65.15s-33.87.18-55.98,1.49l-7.88-64.8s46.85-1.78,53.92-1.84Z"/>
    <polygon class="cls-34" points="596.75 902.63 603.38 969.62 550 969.62 541.1 903.87 596.75 902.63"/>
    <path class="cls-27" d="M464.07,595.77s25.39-6.97,48.09-6.27c0,0,25.41,39.05,28.97,55.54,0,0-26.51.36-47.82,4.45,0,0-20.15-43.5-29.24-53.72Z"/>
    <path class="cls-27" d="M565.72,709.17c2.34,9.2,4.59,18.77,6.69,28.69,2.65,12.46,4.86,24.52,6.72,36.11-17.97.61-35.95,1.22-53.92,1.84,0,0-6.79-50.27-11.86-63.7,0,0,49.99-3.2,52.36-2.93Z"/>
    <path class="cls-27" d="M589.07,839.12l7.68,63.51-55.65,1.25-8.01-63.27s52.05-2.35,55.98-1.49Z"/>
    <path class="cls-27" d="M550,969.62l.06.41c0,.05.01.09.02.14,0,.11.03.23.05.36v.07s.02.09.02.09l.03.17c.01.08.02.17.03.25.03.18.06.37.08.57.02.13.04.27.06.42.01.07.02.15.03.23.02.13.04.25.06.39.04.24.07.5.11.77.03.23.07.46.1.71.05.35.11.72.16,1.1.49,3.25,1.14,7.62,1.88,12.53l.32,2.14.61,4.08.51,3.38.33,2.26.79,5.3.78,5.25.41,2.73.44,2.94.46,3.06.23,1.54.25,1.7c.12.83.25,1.64.36,2.41l.23,1.52.16,1.07.3,2,.07.47.13.88.18,1.23.45,2.96h49.05s-5.36-65.13-5.36-65.13h-53.39Z"/>
    <path class="cls-20" d="M440.8,570.69s-52.59,12.37-54.52,20.13c-1.94,7.75,2.37,4.95,2.37,4.95l22.76,19.02s25.38-12.56,52.67-19.02c0,0-8.77-13.58-23.27-25.08Z"/>
    <path class="cls-20" d="M493.3,649.49s6.7,11.97,20.05,62.62c0,0-36.92,3.07-50.72,5.79l-21.48-55.51c4.83-1.9,10.01-3.73,15.54-5.41,13.34-4.04,25.73-6.29,36.61-7.49Z"/>
    <path class="cls-20" d="M525.21,775.81l7.88,64.8s-43.24,1.63-58.62,4.67l-11.33-53.72c.62-3.48,1.24-6.96,1.86-10.44.83-.48,1.68-.95,2.55-1.41,10.22-5.33,28.65-11.27,57.67-3.91Z"/>
    <path class="cls-20" d="M541.1,903.87l8.9,65.75h-48.96s-13.57-63.16-13.57-63.16c0,0,42.18-3.11,53.63-2.59Z"/>
    <path class="cls-26" d="M464.07,595.77c3.1,3.96,6.22,8.26,9.27,12.94,9.45,14.48,15.73,28.55,19.97,40.78,0,0-28.64,3.43-52.15,12.9l-29.75-47.59s22.94-11.57,52.67-19.02Z"/>
    <path class="cls-26" d="M462.64,717.89s27.84-4.37,50.72-5.79c1.66,5,3.22,10.27,4.64,15.82,4.48,17.46,6.52,33.67,7.22,47.89,0,0-46.7,2.35-60.22,5.31l-2.36-63.22Z"/>
    <path class="cls-26" d="M533.09,840.61l8.01,63.27s-31.96.76-53.63,2.59l-13-61.19c6.09-.97,12.44-1.82,19.02-2.53,14.08-1.51,27.34-2.12,39.6-2.14Z"/>
    <path class="cls-26" d="M501.04,969.62l.15.66.12.55,14.24,63.92h44.13c.05.29.09.57.14.85l-.12-.85-.45-2.96-.18-1.23-.13-.88-.07-.47-.3-2-.16-1.07-.23-1.52c-.11-.77-.24-1.58-.36-2.41l-.25-1.7-.23-1.54-.46-3.06-.44-2.94-.41-2.73-.78-5.25-.79-5.3-.33-2.26-.51-3.38-.61-4.08-.32-2.14-2.51-16.97-.03-.17v-.09s-.02-.07-.02-.07c-.02-.13-.04-.25-.05-.36-.01-.05-.02-.09-.02-.14l-.06-.41h-48.96Z"/>
    <path class="cls-34" d="M463.14,791.56l11.33,53.72s-28.62,2.48-49.08,10.29l37.75-64.01Z"/>
    <path class="cls-34" d="M487.47,906.47l13.57,63.16h-52.58s-13.04-56.48-13.04-56.48c0,0,16.68-4.67,52.05-6.67Z"/>
    <polygon class="cls-27" points="453.62 969.62 462.49 1034.75 515.55 1034.75 501.31 970.83 501.19 970.28 501.04 969.62 453.62 969.62"/>
    <path class="cls-27" d="M474.47,845.28l13,61.19s-31.94,1.18-52.05,6.67l-12.44-49.74,2.42-7.84s15.95-6.99,49.08-10.29Z"/>
    <path class="cls-34" d="M406.13,623.96s-25.58,12.41-40.87,21.61c-3.02-3.53-6.56-7.25-10.67-10.99-7.83-7.12-15.58-12.32-22.25-16.11,14.57-8.13,29.13-16.27,43.7-24.4l30.09,29.9Z"/>
    <path class="cls-34" d="M441.16,680.1s-12.41,4.79-35.87,18.21c0,0,18.39,29.57,26.37,59.52l26.34-12.29c-.74-8.82-2.17-18.93-4.8-29.94-3.33-13.95-7.74-25.85-12.04-35.5Z"/>
    <path class="cls-34" d="M449.93,806.28l-9.76,5.16s.24,16.35-.42,19.76l10.17-24.92Z"/>
    <path class="cls-27" d="M458,745.54c6.58,11.14-8.07,60.74-8.07,60.74l-9.76,5.16s.54-22.4-8.51-53.62l26.34-12.29Z"/>
    <path class="cls-27" d="M406.13,623.96l10.48,6.97,24.55,49.17-35.87,18.21s-11.49-21.45-40.03-52.75c0,0,16.6-9.73,40.87-21.61Z"/>
    <path class="cls-20" d="M333.45,617.45s14.04,8.44,31.81,28.12c-5.75,3.52-11.57,7.17-17.44,10.95-10.72,6.91-20.98,13.85-30.79,20.77-2.69-2.55-6.59-5.64-11.82-8.14-10.49-5-20.27-4.7-25.09-4.2,5.71-5.46,11.58-10.94,17.62-16.44,12.04-10.97,23.97-21.31,35.72-31.05Z"/>
    <path class="cls-20" d="M405.29,698.31s20.16,31.86,26.37,59.52c0,0-30.69,14.95-44.27,23.32,0,0-10.33-25.94-30.74-52.96,0,0,26.76-18.77,48.64-29.88Z"/>
    <path class="cls-20" d="M440.18,811.44s.01,14.54-.42,19.76c0,0-34.63,40.41-50.52,46.57,0,0,7.82-16.02,8.87-40.6,4.45-3.26,9.18-6.53,14.21-9.78,9.67-6.25,19.04-11.51,27.86-15.94Z"/>
    <path class="cls-26" d="M365.26,645.56s25.66,26.19,40.03,52.75c0,0-29.26,16.05-48.64,29.88-5.3-5.98-10.68-12.32-16.07-19.05-8.75-10.91-16.57-21.6-23.56-31.87,4.77-3.63,9.78-7.27,15.01-10.89,11.41-7.91,22.55-14.8,33.22-20.82Z"/>
    <path class="cls-26" d="M431.66,757.83s8.22,25.82,8.51,53.62c0,0-29.82,16.35-42.07,25.73.05-5.42-.2-11.34-.92-17.66-1.75-15.39-5.74-28.33-9.79-38.36,0,0,30.93-18.43,44.27-23.32Z"/>
    <path class="cls-34" d="M280.99,664.96s16.19-7.07,36.04,12.32c0,0-28.65,21.13-44.11,41.45l-35.93-22.71,44-31.07Z"/>
    <path class="cls-34" d="M356.65,728.19s19.4,24.15,30.74,52.96c0,0-25.73,14.7-34.47,25.06l-31.55-43.35s6.41-14.48,35.28-34.67Z"/>
    <path class="cls-34" d="M398.1,837.17s-.3,21.55-8.87,40.6l-13.09,8.45-1.73-28.45s5-7.3,23.69-20.61Z"/>
    <path class="cls-27" d="M317.03,677.28s19.96,23.16,39.62,50.91c0,0-24.22,15.71-35.28,34.67l-48.45-44.13s16.2-21.91,44.11-41.45Z"/>
    <path class="cls-27" d="M352.92,806.21s3.36-6.37,34.47-25.06c0,0,10.78,19.42,10.71,56.02,0,0-17.14,12.24-23.69,20.61l-21.5-51.57Z"/>
    <path class="cls-34" d="M223.81,704.82s-28,19.58-39.49,29.12c0,0,23.89,5.16,43,17.4l29.61-29.93c-4.23-3.31-9.78-7.07-16.69-10.43-6.06-2.95-11.69-4.87-16.42-6.16Z"/>
    <path class="cls-34" d="M308.92,765.48l-27.52,27.37s20.89,19.42,33.79,46.96l30.82-22.29-37.08-52.04Z"/>
    <polygon class="cls-34" points="365.31 874.41 325.31 905.11 333.05 920.95 359.21 912.28 367.07 884.52 365.31 874.41"/>
    <path class="cls-27" d="M223.81,704.82s-30.2,21.46-39.49,29.12c0,0-17.04-4.59-33.85-1.47l50.44-23.16,21.38-6.37,1.53,1.88Z"/>
    <path class="cls-27" d="M256.92,721.4l-29.61,29.93s21.55,10.26,54.08,41.51l27.52-27.37-28.24-31.55-23.75-12.53Z"/>
    <path class="cls-27" d="M346,817.52l-30.82,22.29s17.54,36.89,10.13,65.3l40-30.7-4.49-34.52-14.82-22.37Z"/>
    <path class="cls-26" d="M315.18,839.81l-28.52,20.63,38.65,44.68s8.88-22.57-10.13-65.3Z"/>
    <path class="cls-26" d="M281.39,792.85l-30.26,30.09-56.48-36.27c4.53-5.45,9.38-11.04,14.58-16.7,6.12-6.68,12.18-12.88,18.08-18.62,7.94,4.32,16.73,9.73,25.86,16.51,11.47,8.52,20.8,17.19,28.22,24.99Z"/>
    <path class="cls-26" d="M184.32,733.93s-36.12,27.47-40.57,43.65l-21.75,6.96,2.58-16.13,12.79-29.2,13.1-6.74s13.96-3.23,33.85,1.47Z"/>
    <path class="cls-20" d="M184.32,733.93s-35.25,26.33-40.57,43.65l50.91,9.08s13.94-16.4,32.66-35.32c0,0-13.79-10.16-43-17.4Z"/>
    <path class="cls-20" d="M281.39,792.85l-30.26,30.09,35.53,37.5,28.52-20.63s-10.69-24.52-33.79-46.96Z"/>
    <polygon class="cls-20" points="646.78 629.08 671.14 653.49 732.24 653.49 724.28 639.55 673.15 615.66 671 612.58 646.78 629.08"/>
    <polygon class="cls-34" points="671.14 653.49 629.06 693.54 607.77 666.11 646.78 629.08 671.14 653.49"/>
    <polyline class="cls-26" points="671 612.58 646.78 629.08 599.01 577.68 671 612.58"/>
    <path class="cls-34" d="M612.91,592.63s-18.33,27.06-32.66,34.43l-27.02-50.89,18.28-21.56,27.49,23.07,13.9,14.96Z"/>
    <polygon class="cls-34" points="545.73 517.29 518.68 536.94 515.85 525.07 526.22 501.47 536.32 497.51 545.73 517.29"/>
    <path class="cls-27" d="M612.91,592.63s-17.15,26-32.66,34.43c0,0,20.69,30.26,27.52,39.05l39.01-37.03-33.87-36.44Z"/>
    <path class="cls-27" d="M553.23,576.17c-4.7-5.95-9.87-12.09-15.52-18.36-6.94-7.68-13.79-14.62-20.4-20.86,9.47-6.55,18.95-13.1,28.42-19.65l25.79,37.32-18.28,21.56Z"/>
    <g>
      <path class="cls-17" d="M733.55,636.34c-1.87-2.01-34.15-43.89-34.15-43.89,0,0,12.17,30.23,0,26.01"/>
      <g>
        <path class="cls-17" d="M879.3,707.23c-11.65,5.76-4.21-20.64-4.21-20.64,0,0-8.84,28.36-15.3,43.1"/>
        <path class="cls-17" d="M825.53,725.2c-9.27-8.84-28.78-52.65-28.78-52.65,0,0,6.88,30.47,2.95,29.34"/>
        <g>
          <path class="cls-4" d="M892.75,651.72s-27.86,15.09-54.71,10.88c0,0,31.93,14.22,54.71-10.88Z"/>
          <g>
            <path class="cls-9" d="M906.11,347.91s-30.27-39.01-21.83-56.82c8.44-17.81,23.11-27.85,35.94-11.38,12.83,16.47,34.63,43.99,25.36,84.04l-2.72,9.32-36.75-25.16Z"/>
            <path class="cls-15" d="M944.89,376.98s15.77-65.06-25.14-95.62c-40.91-30.56-56.19,43.38,0,79.36,56.19,35.98,84.78,69.01,77.39,82.81l-2.71,3.77s19.14,28.02,3.86,53.59c-15.28,25.57-36.77,38.63-60.98,33.19,0,0-2.84-.1-5.33-3.16,0,0-102.95,29.44-224.61-84.89"/>
            <path class="cls-17" d="M898.49,454.45s-13.02-11.86-17.93-4.34-21.98-4.05-14.75-15.04,33.55-2.89,48.59,9.69c15.04,12.58,31.82,23.57,40.2,14.32,8.39-9.26,26.61-28.06,37.6-24.01s-1.16,16.2-1.16,16.2l-39.62,29.21s-.58,40.78-10.41,46.28-25.74,0-25.74,0c0,0,22.27-10.7,26.03-33.55,0,0,1.92-9.01-4.43-13.66s-38.38-25.1-38.38-25.1Z"/>
            <path class="cls-17" d="M947.93,537.62l-17.51-3.98h-38.06s-124.51-18.77-163.12-70.44l-5.73-13.13s-15.11-18.91-8.08-20.17c7.03-1.26,20.38,1.9,20.38,1.9,0,0-11.24-16.51-40.76-11.24s-28.46,24.59-28.46,24.59c0,0,17.92-11.93,25.3-10.36,7.38,1.57,42.12,172.31,138.86,199.1,0,0,50.33,17.11,63.46-39.18,13.12-56.29,18.65-52.49,34.19-52.15,0,0,17.38-3.9,19.53-4.94Z"/>
            <path class="cls-24" d="M738.14,479.55s-11.26-8.29-2.07,4.44c9.19,12.73,93.31,103.79,157.39,66.47,0,0,4.86-3.73,3.87-8.84,0,0-72.18,2.96-159.18-62.08Z"/>
            <path class="cls-23" d="M760.69,557.82s51.54,77.72,95.56,63.42c0,0,7.63-2.6,5.03-15.6-2.6-13-24.69-42.89-33.01-17.68,0,0-1.04,3.38-4.68-4.16-3.64-7.54-31.42-32.25-59-36.39,0,0-12.82-1.75-3.9,10.4Z"/>
            <path class="cls-15" d="M940.11,537.59s-12.13,22.65-15,45,8.57,40.86-6.85,76.49c-15.41,35.63-30.03,55.61-46.43,57.11,0,0-14.46,35.74-30.7,45.33,0,0-24.78-46.55-44.61-55.09-19.83-8.53-60.8-55-67.29-65.88-6.49-10.88-123.9-44.46-156.64-95.52-32.74-51.05-54.94-54.64-43.28-136.78,0,0,3.33-31.64,23.31-61.05,0,0-118.89-1.63-155.16-131.28,0,0,102.63-57.88,193.69,21.61,0,0,31.87-101.32,130.55-97.68,0,0,28.4-63.64,113.6-38.74l10.92,7.01s-23.67,12.71-33.13,20.22c0,0,63.72-15.8,78.28,22.43,0,0-15.29,2.18-37.5,16.38,0,0,59.35-1.82,75.73,57.16,0,0-27.31-12.02-38.23-1.46,0,0,76.31-5.63,53.09,93.49"/>
            <path class="cls-17" d="M604.16,569.64c11.62,7.39,3.08-36,3.08-36,5.45,29.47,61.64,71.99,61.64,71.99,0,0-51.65-16.3-61.97-29.6-10.33-13.31-2.74-6.39-2.74-6.39Z"/>
            <path class="cls-17" d="M535.99,480.49c4.17,17.13,23.6-38.19,23.6-38.19.46,90.02,29.63,113.79,29.63,113.79,0,0-41.02-39.39-49.84-58.37-8.82-18.98-3.4-17.24-3.4-17.24Z"/>
            <path class="cls-17" d="M617.46,198.06s-23.22,46.45-13.19,57.79c10.03,11.35,8.71,16.62,8.71,16.62,0,0-23.22-30.87-37.21-40.37"/>
            <path class="cls-4" d="M429.57,232.9s59.11-6.6,99.49,33.78,65.18,49.88,65.18,49.88c0,0-44.33-9.24-69.67-34.57-25.33-25.33-74.95-43.81-95-49.08Z"/>
            <path class="cls-9" d="M751.64,378.05s36.43-22.74,14.6-73.26c-21.83-50.53-64.94-43.25-73.29-25.46-8.35,17.78-16.88,58.74-3.99,75.45l62.69,23.28Z"/>
            <path class="cls-4" d="M645.53,357.63s60.21-10.46,122.05,37.43c0,0-44.49-64.26-122.05-37.43Z"/>
            <path class="cls-4" d="M751.64,378.05s26.35-8.67,23.83-50.17c-2.52-41.5-29.34-71.68-53.24-70.43s-47.37,28.09-44.85,56.17,5.5,34.01,9.25,37.54-7.99-32.1,2.49-52.22c10.48-20.12,21.38-27.38,35.63-26.48s43.72,16.83,42.82,66.3c0,0,2.05,22.91-15.93,39.27Z"/>
            <path class="cls-4" d="M733.83,365.21s7.37-9.18,6.5-26.65c-.86-17.47-9.7-39.68-26.52-38.17-16.82,1.51-25.66,26.09-24.8,36.23s2.37,17.9,2.37,17.9l42.45,10.69Z"/>
            <ellipse class="cls-9" cx="720.37" cy="319.19" rx="7.01" ry="9.29"/>
            <path class="cls-4" d="M890.35,315.08s5.2-10.67,14.22-9.3,22.15,14.5,17.78,50.32c0,0-33.64-23.25-32-41.02Z"/>
            <ellipse class="cls-8" cx="904.38" cy="320.83" rx="5.77" ry="8.15"/>
            <path class="cls-4" d="M759.25,236.45s-18.82-15.9-44.57-15.36-47.58,29.64-49.19,33.95c0,0-3.55-50.65,41.06-53.89,44.62-3.23,52.43,29.64,52.7,35.3Z"/>
            <path class="cls-6" d="M950.04,327.04c17.96,1.67,90,3.93,106.32-64.97,0,0,6.23-17.85-9.55-16.19s-93.58,6.64-110.31-10.38c0,0,2.5-22.16-4.65-31.05"/>
          </g>
        </g>
      </g>
    </g>
    <path class="cls-26" d="M553.23,576.17s-18.89,12.97-19.71,27.21l-17.67-63.01,2.83-3.43c1.13,1.05,2.25,2.12,3.37,3.21,12.02,11.65,22.33,23.8,31.18,36.02Z"/>
    <path class="cls-26" d="M588.37,687.64l-31.64-46.81c3.7-.82,23.51-13.76,23.51-13.76,0,0,21.48,31.27,27.52,39.05,0,0-14.88,18.02-19.39,21.53Z"/>
    <path class="cls-20" d="M607.77,666.11s-15.9,19.25-19.39,21.53l23.42,24.47,15.41-7.81,1.86-10.77-21.29-27.43Z"/>
    <path class="cls-20" d="M553.23,576.17s-19.1,12.36-19.71,27.21l23.21,37.45s8.2-2.88,23.51-13.76l-27.02-50.89Z"/>
    <path class="cls-5" d="M930.82,575.21s33.66,10.27,38.22,70.17c4.56,59.9,8.56,61.05,8.56,61.05,0,0-53.63-27.96-59.33-47.35,0,0,11.98-31.95,7.42-59.9,0,0-3.66-28.77,5.13-23.96Z"/>
    <path class="cls-5" d="M1200.1,618h-46.21s-63.33-6.28-69.03,138.64c0,0,3.14,144.34,112.39,146.62,0,0,69.99-2.3,80.61-39.13l-31.84.62s-65.55,7.49-74.91-125.48c0,0-2.29-51.81,36.46-121.32l-7.46.04Z"/>
    <path class="cls-5" d="M1128.02,627.31s-15.35,6.66-68.09-15.02c-52.74-21.69-104.13-14.01-104.13-14.01"/>
    <line class="cls-5" x1="1030.15" y1="859.52" x2="1139.35" y2="884.1"/>
    <path class="cls-11" d="M990.97,1034.75h19.61c16.26-66.6,24.77-124.15,28.23-173.28,11.51-162.93-32.36-233.19-32.36-233.19,23.15,92.34,18.76,195.86,8.84,275.32-2.87,23.04-6.21,44.05-9.47,62.18-2.23,12.39-4.43,23.44-6.42,32.86-4.34,20.53-7.7,33.38-8.33,35.72-.02.07-.04.14-.05.19-.03.13-.05.2-.05.2Z"/>
    <path class="cls-5" d="M834.11,749.04c7.61,12.65,24.34,65.74,14.51,285.71"/>
    <path class="cls-11" d="M522.64,483.99l-2.02,1.83c-54.19,46.71,14.78,151.88,14.78,151.88,79.38,142.02,95.2,84.28,126.59,43.42,31.39-40.87,24.52,19.29,55.58,22.23,31.06,2.94,66.78,24.89,71.78,28.08,5,3.2,4.34.94,4.34.94-10.63-23.91-52.61-38.79-69.62-44.11-17.01-5.31-11.16-23.38-33.48-37.2-22.32-13.82-56.33,34.54-64.83,47.3-8.5,12.75-18.07,24.98-75.46-72.8-57.39-97.78-19.13-124.35-19.13-124.35l3.18-2.51-8.22-17.45-3.48,2.73Z"/>
    <path class="cls-5" d="M505.16,547.39s-1.6.23-4.55.74c-15.65,2.72-69.4,13.51-126.31,41.49-31.45,15.45-63.87,36.15-91.35,63.64-49.47,49.47-93.01,52.42-124.09,67.78h0c-6.26,3.11-12.02,6.71-17.22,11.31-6.63,5.85-12.35,13.32-17.05,23.39-5.35,11.45-9.37,26.27-11.91,45.94,0,0,0-.02.04-.05.01-.02.03-.04.05-.06.55-.78,3.92-5.23,10.43-9.61.09-.07.18-.12.26-.18.7-.47,1.44-.93,2.21-1.38,2.36-1.41,5.06-2.75,8.1-3.91h.01c.64-.24,1.29-.48,1.96-.7,2-.68,4.14-1.27,6.42-1.75,4.92-1.03,10.49-1.52,16.75-1.16,5.25.3,10.99,1.21,17.22,2.91,4.58,1.24,9.43,2.91,14.56,5.1.04.01.09.03.13.05.07.03.15.07.23.1,8.94,3.83,18.72,9.19,29.39,16.49.13.09.27.18.42.28.16.11.32.22.48.34,21.15,14.61,45.72,36.8,73.97,69.62l36.07,47.63s32.92,4.36,39.2-30.49c1.22-6.7,1.44-14.85.26-24.75-7.33-61.44-78.35-147.11-143.74-171.35"/>
    <path class="cls-14" d="M418.19,863.4s12.5,52.94,27.83,96.97c.96,2.74,1.84,5.42,2.68,8.05,10.24,32.3,11.82,56.47,12.05,64.39.06,1.83.04,2.79.04,2.79"/>
    <path class="cls-1" d="M374.3,589.62s48.17,28.26,74.94,99.96c26.77,71.71,19.56,153.47-78.66,205.33"/>
    <circle class="cls-19" cx="806.84" cy="771.11" r="18.06"/>
    <circle class="cls-19" cx="815.23" cy="910.7" r="18.06"/>
    <path class="cls-2" d="M1277.86,864.13s63.37-3.76,83.76-29.88c20.38-26.12,17.84-70.07,33.76-101.92,15.92-31.85,15.03-107.5-40.45-233.14-55.48-125.65-20.09-120.14-72.7-170.72-52.61-50.58-107.54-102.07-154.21-71.06-46.66,31.01-88.75,97.39-56.23,120.63s43.04,17.01,43.04,17.01c0,0,40.17,63.62,95.65,57.88,0,0,36.24,81.34-2.92,165.02-39.16,83.68-41.98,107.62-29.1,171.21,12.89,63.59,56.76,89.19,99.39,74.96Z"/>
    <path class="cls-4" d="M1221.7,596.96s-39.98,134.88,23.82,182.94c0,0-57.74-28.27-55.32-109.03l25.7-73.91h5.79Z"/>
    <path class="cls-4" d="M1215.61,454.86s46.31-2.33,54.64-30.32c0,0-19.32,15.66-32.65,12.66s-11.66-8.02-11.5-13.51c.16-5.48-2.98-23.19-5.95-26.17,0,0-4.07,17.55-8.77,23.82-4.7,6.27,5.48,16.61,5.48,16.61,0,0-31.02,12.68-48.42-11.76-17.39-24.43,4.31-71.06,17.91-81.26,0,0-47.88,31.92-33.75,84.52l24.35,18.85,38.67,6.57Z"/>
    <path class="cls-4" d="M1106.49,392.03s-5.49-43.11,42.33-81.52c0,0-43.57,50.95-21.26,94.2l-21.07-12.67Z"/>
    <path class="cls-15" d="M1075.09,380.35s-38.84,36.22-2.33,62.53c36.51,26.31,75.3,3.13,74.84-11.86,0,0-32.02-28.21-32.76-35.96,0,0-17.02,3.57-39.75-14.71Z"/>
    <path class="cls-3" d="M705.37,770.53s17.04,96.25,16.54,146.89c0,0,1.5,13.03-20.55,23.56-22.06,10.53-53.14,24.56-53.14,24.56,0,0-8.02,4.51-21.06,0s-66.17-23.06-73.69-29.58c-7.52-6.52-7.02-13.03-8.52-25.07-1.5-12.03-17.55-130.84-17.55-130.84l177.97-9.53Z"/>
    <path class="cls-19" d="M747.56,1032.68l.02.34c-.01-.11-.01-.22-.01-.34h0Z"/>
    <path class="cls-19" d="M581.94,1033.6c0,.05,0,.09.02.14v.04s0-.03,0-.1l-.02-.08Z"/>
    <g>
      <path class="cls-22" d="M676.4,809.6l-14.68-15.4-34.37-7.38-34.29,3.72-28.81,4.14.1,10.16,4.02,49.66,3.09,40.44,2.26,29.27,19.99.86,41.2-5.92,34.91-5.02,17.67-12.5,7.8-14.79-3.01-18.47-16.07-15.35,7.58-8.2,10.82-16.83,1.7-16.6c-4.13.74-8.26,1.49-12.39,2.23-2.51-1.34-5.02-2.68-7.53-4.02Z"/>
      <path class="cls-18" d="M680.3,816.12c-10.64-35.91-61.31-28.02-61.31-28.02l-55.16,6.79,10.45,133.28,93.53-11.34s30.75-5.32,29.3-36.33c0,0-2.27-18.1-14.64-27.02"/>
      <path class="cls-10" d="M583.54,875.62s3.25-36.69,63.07-44.07c0,0,37.15-4.12,47.92-20.28,0,0,.43,55.94-78.69,53.92l48.38-23.39s-15.12,4.91-37.87,9.7c-22.75,4.79-34.52,28.82-26.29,50.04l60.54-8.7s9.88-3.25,8.04-13.94c-1.84-10.69-9.81-11.07-9.81-11.07l20.31-11.14s1.34-.68,2.4-.53c1.05.15,5.7-4.61,5.7-4.61,0,0,16.03-14.18,15.5-34.18-.53-20-4.14-22.99-4.14-22.99-2.59,4.59-7.96,12.68-17.64,19.46-8.66,6.06-17.02,8.46-22.03,9.49,0,0,2.49-18.85-66.17-9.26l3.85,26.76s-16.53,9.99-13.05,34.76Z"/>
    </g>
  </g>
</svg>