<svg width="41" height="40" viewBox="0 0 41 40" fill="none" xmlns="http://www.w3.org/2000/svg">
<path d="M27.8347 8.33332C26.3673 8.33215 24.9271 8.72964 23.668 9.48332C22.7551 7.38796 21.152 5.66855 19.1256 4.61141C17.0992 3.55427 14.7718 3.22318 12.5309 3.6733C10.2901 4.12341 8.27111 5.32755 6.8101 7.08521C5.3491 8.84287 4.53429 11.048 4.50134 13.3333V20C4.50374 22.3614 5.34175 24.6459 6.86698 26.4487C8.39222 28.2515 10.5062 29.4564 12.8347 29.85V35C12.8347 35.442 13.0103 35.8659 13.3228 36.1785C13.6354 36.4911 14.0593 36.6666 14.5013 36.6666C14.9434 36.6666 15.3673 36.4911 15.6799 36.1785C15.9924 35.8659 16.168 35.442 16.168 35V29.85C17.8659 29.5553 19.4606 28.8326 20.8013 27.75C21.3964 28.705 22.1786 29.5296 23.101 30.1741C24.0233 30.8186 25.0666 31.2696 26.168 31.5V35C26.168 35.442 26.3436 35.8659 26.6562 36.1785C26.9687 36.4911 27.3926 36.6666 27.8347 36.6666C28.2767 36.6666 28.7006 36.4911 29.0132 36.1785C29.3257 35.8659 29.5013 35.442 29.5013 35V31.5C31.3836 31.1158 33.0753 30.093 34.2902 28.6048C35.505 27.1166 36.1684 25.2544 36.168 23.3333V16.6667C36.168 14.4565 35.29 12.3369 33.7272 10.7741C32.1644 9.21129 30.0448 8.33332 27.8347 8.33332V8.33332ZM19.5013 16.6667V23.3333C19.5173 23.6516 19.5507 23.9687 19.6013 24.2833C18.71 25.3449 17.5099 26.1023 16.168 26.45V21.6667C16.168 21.2246 15.9924 20.8007 15.6799 20.4881C15.3673 20.1756 14.9434 20 14.5013 20C14.0593 20 13.6354 20.1756 13.3228 20.4881C13.0103 20.8007 12.8347 21.2246 12.8347 21.6667V26.4333C11.4072 26.0648 10.1422 25.2334 9.23749 24.0694C8.33279 22.9053 7.83946 21.4742 7.83468 20V13.3333C7.83033 12.0126 8.21837 10.7203 8.94957 9.62049C9.68077 8.52063 10.7222 7.66275 11.9417 7.15566C13.1612 6.64857 14.5038 6.51514 15.7993 6.77228C17.0947 7.02943 18.2846 7.66556 19.218 8.59999C20.1203 9.51438 20.7345 10.6733 20.9847 11.9333C20.0212 13.324 19.5039 14.9749 19.5013 16.6667V16.6667ZM32.8347 23.3333C32.8318 24.3649 32.5099 25.3703 31.9131 26.2118C31.3163 27.0532 30.4739 27.6895 29.5013 28.0333V21.6667C29.5013 21.2246 29.3257 20.8007 29.0132 20.4881C28.7006 20.1756 28.2767 20 27.8347 20C27.3926 20 26.9687 20.1756 26.6562 20.4881C26.3436 20.8007 26.168 21.2246 26.168 21.6667V28.0333C25.1954 27.6895 24.353 27.0532 23.7562 26.2118C23.1595 25.3703 22.8376 24.3649 22.8347 23.3333V16.6667C22.8347 15.3406 23.3615 14.0688 24.2991 13.1311C25.2368 12.1934 26.5086 11.6667 27.8347 11.6667C29.1608 11.6667 30.4325 12.1934 31.3702 13.1311C32.3079 14.0688 32.8347 15.3406 32.8347 16.6667V23.3333Z" fill="white"/>
</svg>
